<?xml version="1.0" standalone="no"?> <!DOCTYPE svg PUBLIC "-//W3C//DTD SVG 1.0//EN" "http://www.w3.org/TR/2001/REC-SVG-20010904/DTD/svg10.dtd" > <svg xmlns="http://www.w3.org/2000/svg" width="100%" height="100%">
<defs >
<font horiz-adv-x="568" ><font-face
    font-family="Stag Web"
    units-per-em="1000"
    panose-1="2 0 7 3 6 0 0 9 0 4"
    ascent="838"
    descent="-162"
    alphabetic="0" />
<missing-glyph horiz-adv-x="500" />
<glyph unicode=" " glyph-name="space" horiz-adv-x="155" />
<glyph unicode="!" glyph-name="exclam" horiz-adv-x="223" d="M97 595L122 700H306L282 595L139 212H52L97 595ZM66 -6Q28 -6 4 18T-20 77Q-20 97 -13 114T8 143T38 162T74 169Q113 169 137 144T162 85Q162 65 154 49T133 20T103 1T66 -6Z" />
<glyph unicode="&quot;" glyph-name="quotedbl" horiz-adv-x="393" d="M295 615L315 700H475L456 615L379 456H295V615ZM102 615L122 700H281L262 615L186 456H101L102 615Z" />
<glyph unicode="#" glyph-name="numbersign" horiz-adv-x="492" d="M95 539H173L217 700H325L281 539H353L397 700H505L461 539H535L503 402H424L402 322H477L445 185H364L315 0H207L257 185H184L135 0H27L77 185H5L36 322H114L136 402H62L95 539ZM222 322H294L316
402H244L222 322Z" />
<glyph unicode="$" glyph-name="dollar" horiz-adv-x="528" d="M504 232Q504 184 488 144T440 72T359 22T245 -1L221 -102H114L137 0Q86 5 43 15T-36 39L-1 192H100Q112 148 138 129T220 109Q240 109 258 113T291 128T314 153T323 192Q323 225 295 244T218 283Q183
298 155 315T108 354T77 407T66 477Q66 573 129 633T316 701L331 767H438L422 698Q462 694 498 686T570 667L535 517H442Q431 562 404 579T332 597Q287 597 261 577T234 518Q234 486 258 468T328 431Q364 416 396 400T452 361T490 307T504 232Z" />
<glyph unicode="%" glyph-name="percent" horiz-adv-x="811" d="M231 411Q247 411 261 424T286 460T303 512T309 571Q309 625 271 625Q254 625 240 611T214 574T197 522T191 463Q191 411 231 411ZM220 329Q151 329 110 367T68 476Q68 528 86 571T133 644T201 691T280
708Q349 708 391 670T434 561Q434 508 416 466T368 393T300 346T220 329ZM695 729H798L155 -34H52L695 729ZM582 73Q598 73 612 86T637 122T654 174T660 233Q660 287 622 287Q605 287 591 273T565 237T548 185T542 125Q542 73 582 73ZM570 -8Q502 -8 461 29T419
138Q419 190 437 233T484 307T551 354T630 371Q699 371 742 332T785 223Q785 170 767 128T719 55T650 9T570 -8Z" />
<glyph unicode="&amp;" glyph-name="ampersand" horiz-adv-x="704" d="M247 -8Q183 -8 136 5T57 43T11 99T-5 170Q-5 217 11 253T55 317T118 364T193 396Q171 440 171 489Q171 540 188 580T237 649T314 693T417 709Q430 709 445 708T475 706T499 703T514 700H647L604
511H487L482 580Q474 584 464 586T436 588Q397 588 376 567T355 508Q355 465 392 416L500 269Q517 300 532 336T559 416H703L684 334Q666 299 640 255T576 166L606 126Q616 112 622 107T639 101H657L634 0H473L438 46Q396 21 349 7T247 -8ZM277 108Q303 108 327
114T374 134L242 314Q219 298 201 269T183 198Q183 160 205 134T277 108Z" />
<glyph unicode="&apos;" glyph-name="quotesingle" horiz-adv-x="205" d="M102 615L122 700H287L268 615L189 456H103L102 615Z" />
<glyph unicode="(" glyph-name="parenleft" horiz-adv-x="315" d="M174 -49Q147 -34 120 -10T72 51T37 134T23 242Q23 342 51 426T125 575T229 681T349 741H416L394 645Q358 636 319 603T248 517T195 392T174 233Q174 190 181 159T199 104T225 66T255 42L234 -49H174Z" />
<glyph unicode=")" glyph-name="parenright" horiz-adv-x="315" d="M-40 42Q-4 52 35 86T106 174T160 300T181 459Q181 502 174 533T156 586T130 622T100 645L121 741H181Q208 726 235 702T283 642T318 559T332 450Q332 349 304 266T231 118T126 12T6 -49H-61L-40 42Z" />
<glyph unicode="*" glyph-name="asterisk" horiz-adv-x="378" d="M165 405L242 512L139 427L81 428L62 490L105 526L239 522L114 559L91 606L138 657L190 641L246 531L224 653L255 700H326L334 638L258 530L360 615H417L437 553L394 516L260 520L386 484L408 437L363
386L310 400L252 511L275 390L244 343H174L165 405Z" />
<glyph unicode="+" glyph-name="plus" horiz-adv-x="513" d="M49 411H220L263 595H405L363 411H534L503 280H332L290 96H148L190 280H18L49 411Z" />
<glyph unicode="," glyph-name="comma" horiz-adv-x="213" d="M-56 -45Q-24 -41 -2 -29T20 0Q20 10 14 14T-4 27Q-27 45 -27 77Q-27 118 0 143T66 169Q103 169 129 145T155 79Q155 34 139 -1T93 -60T22 -98T-71 -114L-56 -45Z" />
<glyph unicode="-" glyph-name="hyphen" horiz-adv-x="287" d="M45 358H287L257 230H15L45 358Z" />
<glyph unicode="." glyph-name="period" horiz-adv-x="212" d="M60 -6Q22 -6 -2 18T-27 77Q-27 97 -19 114T2 143T32 162T68 169Q107 169 131 144T156 85Q156 65 148 49T127 20T97 1T60 -6Z" />
<glyph unicode="/" glyph-name="slash" horiz-adv-x="346" d="M340 741H462L43 -49H-78L340 741Z" />
<glyph unicode="0" glyph-name="zero" horiz-adv-x="663" d="M297 -9Q235 -9 186 10T101 64T47 150T28 266Q28 350 54 428T125 564Q179 635 252 671T406 708Q468 708 517 688T601 630T654 542T673 428Q673 342 647 262T575 125Q520 55 448 23T297 -9ZM305 110Q389
110 436 214Q447 238 456 267T471 328T481 392T485 453Q485 515 463 548T396 582Q354 582 322 555T266 476Q255 450 246 420T229 359T219 297T215 239Q215 177 237 144T305 110Z" />
<glyph unicode="1" glyph-name="one" horiz-adv-x="394" d="M-24 101H46Q55 101 66 111T79 131L174 546L104 518H68L92 622L265 700H400L270 131Q268 122 271 112T285 101H347L324 0H-47L-24 101Z" />
<glyph unicode="2" glyph-name="two" horiz-adv-x="532" d="M-31 78Q-20 126 0 163T50 232T117 289T198 342Q234 363 266 382T323 421T362 464T377 517Q377 546 361 563T311 580Q269 580 240 561T191 512H92L129 672Q172 688 221 698T335 709Q446 709 509 665T573
536Q573 481 552 440T496 368T417 311T328 264Q297 249 268 233T215 201T173 168T147 132H347L375 199H491L446 0H-50L-31 78Z" />
<glyph unicode="3" glyph-name="three" horiz-adv-x="527" d="M194 -9Q114 -9 55 5T-41 36L-8 178H90Q98 151 123 132T193 112Q217 112 238 118T275 137T300 172T310 223Q310 258 286 278T214 298H162L187 409H239Q272 409 295 417T334 440T356 473T363 512Q363
545 344 563T288 582Q250 582 225 566T182 524H86L120 674Q166 690 211 699T315 709Q428 709 489 665T550 544Q550 462 503 417T376 354V350Q435 339 466 305T497 218Q497 165 476 123T416 51T320 7T194 -9Z" />
<glyph unicode="4" glyph-name="four" horiz-adv-x="564" d="M192 101H236Q245 101 256 111T269 131L279 174H-10L20 309L409 700H587L492 288H560L534 174H466L456 131Q454 122 457 112T472 101H516L493 0H169L192 101ZM136 288H308L361 519H357L136 292V288Z" />
<glyph unicode="5" glyph-name="five" horiz-adv-x="521" d="M189 -9Q110 -9 53 4T-42 36L-10 175H92Q100 149 122 131T190 112Q215 112 237 120T275 146T301 188T311 246Q311 284 293 305T231 327Q196 327 175 315T138 286H29L125 700H574L532 519H418L413 566H227L190
405H193Q213 421 243 432T317 444Q358 444 392 433T450 399T488 344T502 268Q502 205 480 154T418 67T319 11T189 -9Z" />
<glyph unicode="6" glyph-name="six" horiz-adv-x="598" d="M274 -9Q215 -9 168 8T89 56T39 133T22 236Q22 342 57 433T151 588Q201 642 273 675T446 708Q521 708 565 698T634 679L603 544H508Q500 556 482 569T427 582Q380 582 346 562T285 502Q268 476 255 445T230
379Q264 410 306 427T398 445Q484 445 532 402T581 280Q581 218 559 165T496 74T400 13T274 -9ZM309 332Q283 332 258 324T213 304Q204 253 204 205Q204 154 222 129T280 104Q308 104 328 117T363 153T384 202T391 258Q391 291 373 311T309 332Z" />
<glyph unicode="7" glyph-name="seven" horiz-adv-x="517" d="M59 76L451 558V562H212L173 478H60L111 700H607L572 551L233 0H42L59 76Z" />
<glyph unicode="8" glyph-name="eight" horiz-adv-x="593" d="M264 -9Q195 -9 145 5T62 43T14 101T-2 172Q-2 252 46 305T177 379V382Q100 417 100 498Q100 547 122 586T183 653T270 694T375 709Q433 709 477 697T551 662T596 609T612 542Q612 479 574 435T467
370V367Q567 327 567 231Q567 176 545 132T484 56T388 8T264 -9ZM342 422Q383 422 407 450T432 528Q431 555 416 573T366 592Q324 592 299 562T274 484Q274 457 290 440T342 422ZM270 107Q299 107 320 118T356 147T378 188T386 238Q386 273 367 296T298 319Q271
319 250 308T215 279T193 237T186 188Q186 153 204 130T270 107Z" />
<glyph unicode="9" glyph-name="nine" horiz-adv-x="597" d="M188 -9Q114 -9 69 1T0 21L31 152H126Q135 141 153 128T207 114Q258 114 294 133T357 192Q391 244 411 320Q377 288 334 270T241 252Q155 252 107 295T58 419Q58 481 80 534T142 625T239 686T365 708Q485
708 551 643T617 463Q617 411 608 361T583 264T543 178T491 107Q440 53 367 22T188 -9ZM329 366Q356 366 381 374T426 393Q435 445 435 494Q435 545 417 570T359 595Q331 595 311 582T277 546T256 496T249 440Q249 407 266 387T329 366Z" />
<glyph unicode=":" glyph-name="colon" horiz-adv-x="210" d="M125 280Q87 280 63 304T39 363Q39 382 47 399T68 428T98 447T134 454Q172 454 196 429T220 370Q220 350 212 334T191 305T161 287T125 280ZM59 -6Q21 -6 -3 18T-27 76Q-27 95 -20 112T1 141T31 160T67
167Q105 167 129 143T154 84Q154 64 146 48T125 19T95 1T59 -6Z" />
<glyph unicode=";" glyph-name="semicolon" horiz-adv-x="211" d="M125 280Q87 280 63 304T39 363Q39 382 47 399T68 428T98 447T134 454Q172 454 196 429T220 370Q220 350 212 334T191 305T161 287T125 280ZM-56 -44Q-24 -40 -3 -29T19 0Q19 10 13 13T-4 26Q-15
35 -21 47T-27 76Q-27 117 0 142T65 167Q102 167 127 144T152 78Q152 33 136 -1T91 -60T20 -97T-71 -114L-56 -44Z" />
<glyph unicode="&lt;" glyph-name="less" horiz-adv-x="446" d="M18 280L44 389L459 575H501L470 440L204 327V324L416 206L387 84H347L18 280Z" />
<glyph unicode="=" glyph-name="equal" horiz-adv-x="489" d="M69 480H522L492 351H40L69 480ZM22 273H474L444 144H-9L22 273Z" />
<glyph unicode="&gt;" glyph-name="greater" horiz-adv-x="446" d="M7 219L273 331V334L62 452L90 575H131L459 379L434 270L19 84H-24L7 219Z" />
<glyph unicode="?" glyph-name="question" horiz-adv-x="447" d="M112 212Q112 241 115 265T129 312T158 356T205 402Q218 413 236 426T272 456T300 493T312 537Q312 560 299 573T260 587Q229 587 209 571T175 531H74L108 677Q146 691 190 700T292 709Q395 709
447 667T499 555Q499 516 488 487T456 433T409 390T349 351Q319 333 296 318T255 287T229 254T217 212H112ZM144 -6Q106 -6 82 18T57 77Q57 97 65 114T86 143T116 162T152 169Q191 169 215 144T240 85Q240 65 232 49T211 20T180 1T144 -6Z" />
<glyph unicode="@" glyph-name="at" horiz-adv-x="867" d="M440 -134Q362 -134 288 -113T157 -46T64 71T29 240Q29 344 70 423T176 557T319 639T472 667Q548 667 618 645T742 581T827 478T859 337Q859 267 839 216T784 132T704 82T609 66Q547 66 516 84T474 135Q454
108 423 88T347 68Q291 68 258 102T225 201Q225 257 242 304T292 389Q320 421 356 438T443 456Q478 456 501 445T541 415Q556 429 574 439T608 450H674L618 203Q611 176 616 158T647 140Q671 140 693 152T732 188T760 250T770 337Q770 398 748 445T687 526T593
576T472 593Q409 593 347 572T236 507T156 397T125 240Q125 160 149 103T215 10T314 -43T440 -60Q515 -60 573 -45T677 0H737L723 -61Q675 -93 601 -113T440 -134ZM406 154Q424 154 439 162T468 185L509 361Q502 363 493 365T469 367Q445 367 426 354T394 318T374
265T367 201Q367 154 406 154Z" />
<glyph unicode="A" glyph-name="A" horiz-adv-x="731" d="M-27 101H-10Q4 101 16 109T36 132L287 566Q293 577 292 586T279 595H231L255 700H586L637 126Q639 116 647 109T664 101H685L661 0H340L363 101H449L440 215H223L209 191Q186 147 187 124T224 101H257L234
0H-50L-27 101ZM275 311H434L417 564H415L275 311Z" />
<glyph unicode="B" glyph-name="B" horiz-adv-x="631" d="M-26 101H9Q20 101 30 111T43 131L143 566Q145 575 141 585T126 595H87L112 700H402Q528 700 588 660T649 545Q649 467 605 425T477 367V363Q540 352 575 321T611 231Q611 176 589 133T525 61T427 16T300
0H-49L-26 101ZM290 108Q327 108 352 118T393 145T414 186T421 237Q421 272 399 291T328 311H273L227 108H290ZM296 411H346Q379 411 401 419T437 442T456 477T462 522Q462 556 442 573T377 590H337L296 411Z" />
<glyph unicode="C" glyph-name="C" horiz-adv-x="621" d="M326 -9Q179 -9 104 64T29 264Q29 358 60 439T146 580T278 674T443 709Q488 709 511 706T547 700H700L645 463H525V572Q512 577 495 581T457 585Q408 585 366 563T292 500T242 399T223 264Q223 114 344
114Q395 114 428 133T494 186H587L556 50Q510 23 454 7T326 -9Z" />
<glyph unicode="D" glyph-name="D" horiz-adv-x="707" d="M-26 101H8Q18 101 29 111T43 131L143 566Q145 575 140 585T125 595H87L112 700H394Q550 700 634 628T719 417Q719 324 690 248T604 116T464 31T274 0H-49L-26 101ZM285 106Q341 106 386 128T462 191T511
292T528 427Q528 511 488 549T375 588H338L228 106H285Z" />
<glyph unicode="E" glyph-name="E" horiz-adv-x="598" d="M628 493H516L520 587H338L297 409H385L406 470H509L456 241H355L361 303H272L228 109H418L460 221H578L527 0H-49L-26 101H9Q20 101 30 111T43 131L143 566Q145 575 141 585T126 595H87L112 700H676L628 493Z" />
<glyph unicode="F" glyph-name="F" horiz-adv-x="581" d="M622 484H509L515 587H338L293 391H379L402 457H505L449 214H349L354 283H268L227 101H308L285 0H-49L-26 101H9Q20 101 30 111T43 131L143 566Q145 575 141 585T126 595H87L112 700H672L622 484Z" />
<glyph unicode="G" glyph-name="G" horiz-adv-x="676" d="M302 -9Q170 -9 100 62T29 259Q29 352 60 434T147 577T280 673T449 709Q493 709 518 706T557 700H707L654 470H532V571Q519 577 501 581T458 585Q408 585 366 562T292 495T242 392T223 258Q223 180 250
145T335 110Q361 110 374 112T404 120L431 242H371L395 344H687L663 241H642Q631 241 621 231T608 211L560 0H462Q460 6 457 10Q454 14 450 17T439 21Q410 7 380 -1T302 -9Z" />
<glyph unicode="H" glyph-name="H" horiz-adv-x="740" d="M-26 101H9Q20 101 30 111T43 131L143 566Q145 575 141 585T126 595H87L112 700H433L409 595H340L297 407H511L553 595H485L509 700H831L807 595H771Q760 595 750 585T737 566L638 131Q636 122 640 112T654
101H694L671 0H348L371 101H440L487 305H273L227 101H296L273 0H-49L-26 101Z" />
<glyph unicode="I" glyph-name="I" horiz-adv-x="349" d="M-26 101H16Q26 101 36 111T49 131L149 566Q151 575 147 585T133 595H87L112 700H440L416 595H373Q362 595 352 585T340 566L240 131Q238 122 242 112T256 101H302L279 0H-49L-26 101Z" />
<glyph unicode="J" glyph-name="J" horiz-adv-x="501" d="M144 -8Q82 -8 36 2T-42 28L-13 155H83Q91 137 106 125T148 112Q180 112 196 131T221 186L308 566Q310 575 306 585T292 595H248L273 700H593L568 595H532Q521 595 511 585T499 566L413 193Q401 140 381
103T329 40T252 4T144 -8Z" />
<glyph unicode="K" glyph-name="K" horiz-adv-x="702" d="M-26 101H9Q20 101 30 111T43 131L143 566Q145 575 141 585T126 595H87L112 700H424L400 595H340L289 375L480 538Q509 562 504 578T474 595H469L494 700H779L756 595H743Q730 595 722 591T697 573L488
402L607 128Q611 119 616 110T633 101H656L633 0H403L420 90L337 293L256 230L227 101H289L266 0H-49L-26 101Z" />
<glyph unicode="L" glyph-name="L" horiz-adv-x="584" d="M-26 101H9Q20 101 30 111T43 131L143 566Q145 575 141 585T126 595H87L112 700H452L428 595H340L228 109H401L451 244H570L514 0H-49L-26 101Z" />
<glyph unicode="M" glyph-name="M" horiz-adv-x="902" d="M-26 101H9Q20 101 30 111T43 131L143 566Q145 575 141 585T126 595H87L112 700H433L452 295H455L655 700H993L969 595H933Q922 595 912 585T899 566L800 131Q798 122 801 112T816 101H856L833 0H522L545
101H605L710 558H707L425 0H307L282 558H279L174 101H240L217 0H-49L-26 101Z" />
<glyph unicode="N" glyph-name="N" horiz-adv-x="714" d="M-26 101H9Q20 101 30 111T43 131L143 566Q145 575 141 585T126 595H87L112 700H361L507 275H510L585 595H514L539 700H807L783 595H749Q739 595 729 585T716 566L587 0H426L260 465H257L174 101H247L224
0H-49L-26 101Z" />
<glyph unicode="O" glyph-name="O" horiz-adv-x="715" d="M334 -9Q263 -9 207 10T111 66T50 156T28 277Q28 370 59 448T144 585T270 675T426 708Q494 708 549 689T644 632T704 542T726 423Q726 326 696 247T613 110T488 22T334 -9ZM341 111Q386 111 422 137T484
207T522 308T536 425Q536 502 505 542T414 582Q369 582 333 557T271 488T233 388T219 268Q219 192 250 152T341 111Z" />
<glyph unicode="P" glyph-name="P" horiz-adv-x="624" d="M-26 101H9Q20 101 30 111T43 131L143 566Q145 575 141 585T126 595H87L112 700H407Q530 700 597 653T664 516Q664 387 577 322T329 257H262L227 101H308L285 0H-49L-26 101ZM283 360H337Q376 360 402
372T444 404T466 451T473 508Q473 542 454 565T388 588H336L283 360Z" />
<glyph unicode="Q" glyph-name="Q" horiz-adv-x="715" d="M509 -121Q491 -81 442 -55T297 -12Q235 -1 186 21T101 78T48 162T29 277Q29 371 60 450T146 587T273 676T426 708Q495 708 550 688T645 631T705 541T726 422Q726 347 709 287T661 182T585 107T488 62V59Q571
46 614 25T678 -23L655 -121H509ZM341 108Q385 108 421 134T482 204T521 305T535 423Q535 501 505 541T415 582Q370 582 334 557T272 487T232 383T218 255Q218 189 249 149T341 108Z" />
<glyph unicode="R" glyph-name="R" horiz-adv-x="681" d="M-26 101H9Q20 101 30 111T43 131L143 566Q145 575 141 585T126 595H87L112 700H419Q545 700 608 655T672 530Q672 448 622 400T479 336V332Q504 326 521 317T551 292T571 251T584 186L592 126Q594 112
599 107T611 101H635L612 0H408L398 190Q396 218 393 236T380 266T356 281T316 286H269L227 101H303L280 0H-49L-26 101ZM289 383H348Q385 383 410 393T451 420T472 462T479 514Q479 547 459 567T388 588H336L289 383Z" />
<glyph unicode="S" glyph-name="S" horiz-adv-x="532" d="M223 -9Q199 -9 181 -8T150 -6T125 -4T103 0H-40L8 214H133L129 116Q136 113 142 111T158 108T180 105T213 104Q264 104 296 123T329 189Q329 209 321 222T297 246T261 267T212 290Q183 303 158 318T115
355T85 406T74 478Q74 530 91 572T143 645T228 692T345 709Q391 709 419 706T467 700H588L542 504H422V590Q410 595 393 598T348 601Q295 601 268 580T240 519Q240 502 246 490T263 469T289 452T325 435Q364 417 397 400T455 361T493 306T507 228Q507 177 490 134T437
59T348 9T223 -9Z" />
<glyph unicode="T" glyph-name="T" horiz-adv-x="646" d="M124 101H165Q175 101 185 111T198 131L303 591H219L172 452H58L115 700H734L677 452H563L579 591H494L389 131Q387 122 391 112T405 101H449L427 0H101L124 101Z" />
<glyph unicode="U" glyph-name="U" horiz-adv-x="714" d="M337 -8Q256 -8 199 11T110 67T69 154T75 270L142 566Q144 575 140 585T126 595H88L112 700H438L414 595H340L260 248Q251 209 254 183T271 141T306 119T356 112Q389 112 412 119T453 143T481 186T501
250L580 595H505L530 700H806L782 595H748Q737 595 727 585T714 566L639 240Q625 179 601 133T541 56T455 8T337 -8Z" />
<glyph unicode="V" glyph-name="V" horiz-adv-x="714" d="M131 571Q130 582 125 588T108 595H86L110 700H419L394 595H319L356 178H358L545 524Q564 559 561 577T526 595H497L521 700H806L781 595H763Q752 595 740 587T720 565L390 0H199L131 571Z" />
<glyph unicode="W" glyph-name="W" horiz-adv-x="980" d="M128 571Q128 581 122 588T105 595H87L112 700H415L390 595H316L315 226H317L538 700H672L680 226H683L819 524Q836 559 834 577T802 595H773L797 700H1073L1049 595H1036Q1024 595 1011 587T992 565L718
0H527L520 403H518L331 0H139L128 571Z" />
<glyph unicode="X" glyph-name="X" horiz-adv-x="682" d="M-26 101H-1Q9 101 20 106T39 120L249 350L144 567Q136 584 131 589T115 595H87L112 700H417L393 599H337L411 442L494 541Q519 570 512 584T483 599H468L491 700H774L749 595H722Q712 595 701 589T682
575L478 348L585 129Q599 101 618 101H636L613 0H307L329 98H392L315 261L220 149Q201 126 206 112T235 98H255L232 0H-49L-26 101Z" />
<glyph unicode="Y" glyph-name="Y" horiz-adv-x="669" d="M141 101H182Q193 101 203 111T216 131L251 286L133 573Q125 595 109 595H87L112 700H414L390 595H319L395 394H398L499 529Q523 561 517 578T479 595H459L483 700H761L737 595H722Q711 595 699 587T677
568L439 276L407 131Q405 122 408 112T423 101H467L444 0H118L141 101Z" />
<glyph unicode="Z" glyph-name="Z" horiz-adv-x="563" d="M-21 125L407 583V587H231L192 490H79L128 700H646L616 572L188 113V109H381L424 221H542L491 0H-50L-21 125Z" />
<glyph unicode="[" glyph-name="bracketleft" horiz-adv-x="273" d="M130 741H374L350 636H258L122 52H216L192 -49H-52L130 741Z" />
<glyph unicode="\" glyph-name="backslash" horiz-adv-x="346" d="M106 741H216L282 -49H172L106 741Z" />
<glyph unicode="]" glyph-name="bracketright" horiz-adv-x="273" d="M-38 52H55L189 636H97L121 741H365L183 -49H-61L-38 52Z" />
<glyph unicode="^" glyph-name="asciicircum" horiz-adv-x="398" d="M66 503L226 700H351L444 503L432 452H333L272 567H269L164 452H54L66 503Z" />
<glyph unicode="_" glyph-name="underscore" horiz-adv-x="381" d="M-77 -68H308L286 -162H-99L-77 -68Z" />
<glyph unicode="`" glyph-name="grave" horiz-adv-x="400" d="M142 647L154 700H300L327 560H231L142 647Z" />
<glyph unicode="a" glyph-name="a" horiz-adv-x="537" d="M129 -6Q66 -6 28 28T-11 129Q-11 174 6 208T53 266T125 301T216 313Q253 313 275 310T315 301L325 346Q332 378 317 396T256 414Q234 414 218 411T190 402T167 389T146 372H66L96 504Q116 510 136 516T181
526T233 532T298 535Q418 535 471 489T503 348L452 126Q450 118 456 110T470 101H495L476 16Q456 5 430 -1T374 -8Q326 -8 304 11T275 60Q216 -6 129 -6ZM208 95Q229 95 244 103T274 126L296 220Q285 223 271 225T242 227Q200 227 179 203T157 146Q157 122 169
109T208 95Z" />
<glyph unicode="b" glyph-name="b" horiz-adv-x="570" d="M285 -8Q232 -8 198 10T143 56Q123 33 100 17T63 0H-26L104 569Q106 577 101 586T87 595H57L81 700H283Q311 700 303 662L257 461Q286 491 327 513T418 536Q450 536 477 525T525 492T556 437T567 360Q567
322 561 283T542 206T513 137T475 79Q434 31 387 12T285 -8ZM314 408Q297 408 277 400T239 381L177 115Q188 109 203 105T239 100Q276 100 304 118T351 167T379 238T389 324Q389 367 369 387T314 408Z" />
<glyph unicode="c" glyph-name="c" horiz-adv-x="479" d="M244 -8Q183 -8 139 6T65 47T21 111T7 195Q7 270 31 332T99 440T203 510T333 535Q394 535 439 526T514 502L484 372H393Q386 393 373 407T325 422Q292 422 266 402T221 348T192 274T182 190Q182 100 258
100Q296 100 315 115T348 151H440L411 27Q380 13 341 3T244 -8Z" />
<glyph unicode="d" glyph-name="d" horiz-adv-x="597" d="M159 -9Q90 -9 47 36T4 172Q4 207 10 244T29 318T61 388T104 448Q144 493 192 514T288 535Q336 535 365 523T414 487L440 595H379L404 700H613Q627 700 632 690T633 662L510 126Q508 118 513 110T527 101H554L535
13Q515 3 491 -2T441 -8Q387 -8 361 13T330 71Q301 39 257 15T159 -9ZM253 103Q271 103 293 113T335 140L395 402Q386 407 371 411T333 416Q295 416 267 398T220 347T192 273T182 183Q182 103 253 103Z" />
<glyph unicode="e" glyph-name="e" horiz-adv-x="512" d="M248 -8Q185 -8 140 7T66 51T23 117T9 202Q9 274 34 335T101 440T202 510T326 535Q420 535 470 494T521 387Q521 334 497 300T429 244T321 214T180 201Q181 148 200 124T258 100Q299 100 324 116T366 151H458L429
28Q399 14 354 3T248 -8ZM307 431Q284 431 265 420T231 391T206 347T189 292Q274 299 315 318T357 379Q357 402 345 416T307 431Z" />
<glyph unicode="f" glyph-name="f" horiz-adv-x="332" d="M64 526H121L128 559Q147 640 197 676T329 712Q364 712 387 708T426 697L404 601H378Q345 601 329 592T305 553L299 526H380L357 419H275L188 28Q179 -13 163 -44T126 -98T81 -137T32 -162H-83L-61 -68Q-36
-61 -17 -40T14 31L98 419H40L64 526Z" />
<glyph unicode="g" glyph-name="g" horiz-adv-x="497" d="M169 -178Q46 -178 -9 -147T-65 -64Q-65 -39 -55 -21T-27 10T11 32T56 48Q39 58 28 76T16 118Q16 157 38 184T101 235Q75 252 61 279T47 341Q47 386 65 421T114 482T189 521T281 535Q320 535 355 526H544L520
419H503Q498 419 490 415T479 403Q480 398 480 393T481 382Q481 338 464 304T415 245T342 207T252 194Q224 194 201 197T158 207Q150 201 146 193T141 174Q141 151 178 151H311Q388 151 423 117T459 29Q459 -16 444 -53T394 -119T304 -162T169 -178ZM252 280Q279
280 303 309T327 391Q327 416 313 429T278 443Q251 443 228 414T205 331Q205 307 217 294T252 280ZM103 10Q88 -9 88 -31Q88 -53 106 -66T175 -79Q237 -79 267 -63T297 -21Q297 -7 286 1T246 10H103Z" />
<glyph unicode="h" glyph-name="h" horiz-adv-x="604" d="M436 -8Q370 -8 347 26T339 121L390 345Q396 371 388 384T353 397Q313 397 260 364L177 0H27Q16 0 10 9T6 32L130 569Q132 577 126 586T112 595H83L107 700H309Q337 700 329 662L278 441Q318 478 369 506T477
535Q543 535 568 497T580 397L517 126Q515 118 521 110T535 101H562L543 13Q523 3 496 -2T436 -8Z" />
<glyph unicode="i" glyph-name="i" horiz-adv-x="299" d="M226 561Q188 561 166 583T143 640Q143 679 171 703T237 727Q275 727 298 704T321 649Q321 629 314 613T293 585T263 567T226 561ZM127 -8Q61 -8 38 26T29 121L92 393Q94 401 89 410T75 419H41L62 512Q85
520 113 526T187 532Q241 532 265 503T276 419L208 126Q206 118 212 110T226 101H256L237 13Q217 3 188 -2T127 -8Z" />
<glyph unicode="j" glyph-name="j" horiz-adv-x="278" d="M226 561Q188 561 166 583T143 640Q143 679 171 703T237 727Q275 727 298 704T321 649Q321 629 314 613T293 585T263 567T226 561ZM-14 -169Q-48 -169 -73 -165T-115 -154L-94 -67H-67Q-35 -67 -21 -53T1
-6L92 393Q94 401 89 410T75 419H41L62 512Q85 520 113 526T187 532Q241 532 265 504T276 419L177 -15Q157 -102 110 -135T-14 -169Z" />
<glyph unicode="k" glyph-name="k" horiz-adv-x="554" d="M426 -8Q400 -8 383 -2T354 17T334 46T317 83L270 198Q256 190 242 183T215 169L177 0H27Q15 0 9 9T5 32L129 569Q131 577 126 586T112 595H82L106 700H308Q321 700 327 690T328 662L246 303Q277 325 307
351T361 407T403 466T428 526H585L566 442Q538 404 498 364T411 286L483 126Q488 115 495 108T513 101H532L512 13Q496 4 476 -2T426 -8Z" />
<glyph unicode="l" glyph-name="l" horiz-adv-x="301" d="M129 -8Q63 -8 40 26T30 121L133 569Q135 577 130 586T116 595H83L107 700H312Q341 700 332 662L209 126Q207 118 212 110T226 101H259L239 13Q219 3 190 -2T129 -8Z" />
<glyph unicode="m" glyph-name="m" horiz-adv-x="893" d="M725 -8Q659 -8 636 26T627 121L679 346Q684 372 678 385T645 399Q628 399 606 390T562 366L477 0H328Q316 0 310 9T307 32L379 346Q385 372 379 385T346 399Q327 399 305 389T261 365L177 0H27Q16 0 10
9T6 32L89 393Q91 401 86 410T72 419H41L62 512Q85 520 111 526T184 532Q228 532 252 510T275 441Q313 479 360 507T466 535Q517 535 542 509T570 436Q608 477 656 506T765 535Q831 535 857 497T869 397L806 126Q804 118 810 110T824 101H851L831 13Q811 3 784
-2T725 -8Z" />
<glyph unicode="n" glyph-name="n" horiz-adv-x="604" d="M436 -8Q370 -8 347 26T339 121L390 345Q396 371 388 384T353 397Q332 397 309 389T261 364L177 0H27Q16 0 10 9T6 32L89 393Q91 401 86 410T72 419H41L62 512Q85 520 111 526T184 532Q229 532 253 509T275
438Q295 457 318 474T367 505T420 527T477 535Q543 535 568 497T580 397L517 126Q515 118 521 110T535 101H562L543 13Q523 3 496 -2T436 -8Z" />
<glyph unicode="o" glyph-name="o" horiz-adv-x="560" d="M253 -7Q135 -7 72 54T8 220Q8 289 31 347T95 446T191 511T309 535Q427 535 490 474T553 308Q553 239 531 181T468 82T373 17T253 -7ZM257 101Q285 101 308 120T346 170T370 241T379 323Q379 371 360 395T305
419Q277 419 254 400T215 349T191 278T182 197Q182 101 257 101Z" />
<glyph unicode="p" glyph-name="p" horiz-adv-x="600" d="M-72 -68H-41Q-32 -68 -22 -60T-10 -43L89 393Q91 401 86 410T72 419H41L62 512Q85 520 111 526T184 532Q226 532 250 511T275 446Q306 481 349 508T449 536Q512 536 554 492T597 360Q597 285 574 214T505
92Q467 49 420 30T321 11Q275 11 244 22T190 54L162 -68H220L198 -162H-93L-72 -68ZM344 408Q326 408 304 400T263 377L206 126Q217 121 233 116T274 111Q310 111 337 129T383 176T410 244T419 324Q419 366 399 387T344 408Z" />
<glyph unicode="q" glyph-name="q" horiz-adv-x="582" d="M232 -68H289L322 78Q293 49 253 30T163 11Q91 11 49 54T6 183Q6 258 29 325T99 445Q142 493 192 514T296 535Q348 535 377 518T429 469Q450 495 474 510T522 526H602L473 -43Q471 -51 477 -59T492 -68H525L503
-162H210L232 -68ZM252 113Q277 113 299 125T340 155L395 403Q386 408 372 412T334 416Q297 416 269 397T222 347T194 276T184 194Q184 151 202 132T252 113Z" />
<glyph unicode="r" glyph-name="r" horiz-adv-x="405" d="M27 0Q16 0 10 9T6 32L89 393Q91 401 86 410T72 419H41L62 512Q85 520 111 526T184 532Q228 532 251 508T272 435Q300 478 337 504T423 531Q439 531 454 526L422 388H401Q350 388 314 373T255 340L177 0H27Z" />
<glyph unicode="s" glyph-name="s" horiz-adv-x="435" d="M169 -7Q125 -7 93 -3T36 7T-5 20T-34 35L-7 151H80Q90 126 107 111T163 96Q193 96 215 108T237 148Q237 160 231 168T213 183T187 194T155 205Q130 214 109 225T73 254T49 294T40 347Q40 394 57 429T104
487T176 521T268 533Q304 533 332 530T382 522T421 511T455 497L428 379H342Q332 404 314 417T262 431Q226 431 210 418T193 382Q193 360 213 349T269 325Q296 316 320 304T362 276T391 236T402 179Q402 88 340 41T169 -7Z" />
<glyph unicode="t" glyph-name="t" horiz-adv-x="337" d="M65 526H119L151 665H329L297 526H384L360 419H272L216 171Q208 137 219 119T269 101H292L270 5Q252 -1 231 -5T180 -9Q89 -9 53 36T37 167L95 419H41L65 526Z" />
<glyph unicode="u" glyph-name="u" horiz-adv-x="600" d="M431 -8Q378 -8 352 12T328 80Q286 39 241 16T142 -8Q73 -8 44 35T31 149L87 393Q89 401 84 410T71 419H41L62 512Q85 520 113 526T182 533Q240 533 261 498T269 408L216 177Q211 151 219 136T256 120Q292
120 339 149L426 526H576Q588 526 594 517T597 494L512 126Q510 118 516 110T530 101H558L539 13Q519 3 491 -2T431 -8Z" />
<glyph unicode="v" glyph-name="v" horiz-adv-x="537" d="M85 397Q83 406 77 412T64 419H41L62 512Q83 520 106 526T165 533Q215 533 234 510T258 438L281 165H283Q331 240 367 329T424 526H575L552 425Q529 372 504 320T449 215T380 109T293 0H138L85 397Z" />
<glyph unicode="w" glyph-name="w" horiz-adv-x="779" d="M83 397Q82 405 76 412T62 419H41L62 512Q83 520 104 526T163 533Q213 533 232 511T253 438L258 207H260L398 526H534L556 190H559Q597 258 624 340T669 526H818L795 425Q778 377 756 326T706 221T641
112T557 0H424L408 309H406L262 0H103L83 397Z" />
<glyph unicode="x" glyph-name="x" horiz-adv-x="506" d="M-10 101Q25 111 64 145T159 251L83 402Q78 410 74 414T61 419H34L54 512Q70 520 90 526T142 532Q166 532 182 529T212 515T237 486T261 437L294 360Q329 417 364 461T428 526H539L516 419Q484 411 445
377T350 273L425 123Q436 101 454 101H478L458 13Q442 4 423 -2T374 -8Q349 -8 331 -3T300 12T276 39T254 78L213 164Q181 112 147 69T83 0H-33L-10 101Z" />
<glyph unicode="y" glyph-name="y" horiz-adv-x="587" d="M183 -172Q106 -172 57 -163T-23 -142L6 -22H108Q118 -42 138 -54T193 -66Q290 -66 311 24L327 96Q289 63 246 45T151 26Q82 26 52 66T37 174L87 393Q89 401 84 410T71 419H41L62 512Q85 520 113 526T182
533Q240 533 261 498T269 408L221 197Q215 171 223 156T260 140Q298 140 344 168L426 526H576Q588 526 594 517T597 494L488 23Q465 -75 392 -123T183 -172Z" />
<glyph unicode="z" glyph-name="z" horiz-adv-x="487" d="M-21 112L307 417H175L140 340H42L85 526H536L510 411L179 106H318L350 183H452L410 0H-47L-21 112Z" />
<glyph unicode="{" glyph-name="braceleft" horiz-adv-x="334" d="M174 -49Q99 -49 66 -12T47 91L83 247Q88 267 81 284T46 301H20L44 405H63Q120 405 132 455L169 615Q183 678 223 709T338 741H435L411 636H351Q341 636 331 626T318 607L283 454Q274 415 247
390T163 353V350Q213 336 227 306T232 233L196 82Q194 73 199 63T216 52H276L253 -49H174Z" />
<glyph unicode="|" glyph-name="bar" horiz-adv-x="162" d="M46 741H156V-49H46V741Z" />
<glyph unicode="}" glyph-name="braceright" horiz-adv-x="334" d="M-38 52H22Q32 52 43 62T56 82L93 241Q102 280 128 304T212 341V344Q162 358 148 388T143 461L177 607Q179 616 174 626T157 636H97L121 741H200Q275 741 308 704T327 601L292 447Q287 427 294
411T329 394H355L331 290H312Q254 290 243 239L205 77Q191 14 151 -17T37 -49H-61L-38 52Z" />
<glyph unicode="~" glyph-name="asciitilde" horiz-adv-x="364" d="M19 301Q34 327 61 348T127 369Q145 369 163 366T198 358T229 350T254 346Q269 346 278 354T294 373H380L360 285Q345 259 318 238T251 217Q233 217 215 221T181 229T150 238T126 242Q110 242
101 234T86 214H0L19 301Z" />
<glyph unicode="&#xa0;" glyph-name="nbspace" horiz-adv-x="155" />
<glyph unicode="&#xa1;" glyph-name="exclamdown" horiz-adv-x="223" d="M152 36L128 -68H-57L-33 36L111 420H197L152 36ZM183 638Q221 638 245 614T270 554Q270 534 262 518T241 489T211 469T175 462Q136 462 112 487T87 547Q87 567 95 583T116 612T146 631T183 638Z" />
<glyph unicode="&#xa2;" glyph-name="cent" horiz-adv-x="487" d="M173 -1Q89 16 49 68T8 196Q8 268 29 327T89 429T180 499T297 532L312 598H421L405 532Q442 527 471 520T523 502L493 370H401Q394 393 380 407T331 422Q297 422 270 403T224 352T194 278T183
191Q183 100 266 100Q302 100 322 114T357 149H447L419 27Q392 15 359 6T280 -7L258 -102H150L173 -1Z" />
<glyph unicode="&#xa3;" glyph-name="sterling" horiz-adv-x="520" d="M399 0Q302 0 237 12T126 46Q106 32 84 21T37 0H-50L-27 100Q28 112 61 158T96 287V299H20L43 401H91Q90 413 90 425T89 450Q89 520 111 569T173 649T266 694T380 708Q451 708 502 697T592
665L557 510H457Q454 522 449 534T434 557T409 573T371 580Q339 580 315 562T280 501Q275 487 273 460T267 401H414L391 299H256Q253 264 245 233Q234 184 215 149Q248 142 283 138T353 134L381 202H496L450 0H399Z" />
<glyph unicode="&#xa5;" glyph-name="yen" horiz-adv-x="618" d="M76 392H196L125 573Q117 595 99 595H88L112 700H396L371 595H314L369 419H371L452 530Q474 560 467 577T434 595H419L443 700H710L685 595H669Q658 595 647 588T627 570L481 392H602L583 313H415L404
261H571L554 182H385L374 131Q372 122 375 112T390 101H435L412 0H85L108 101H149Q160 101 170 111T183 131L195 182H28L46 261H213L225 313H58L76 392Z" />
<glyph unicode="&#xa6;" glyph-name="brokenbar" horiz-adv-x="163" d="M37 308H148L147 -49H37V308ZM37 741H147L148 390H37V741Z" />
<glyph unicode="&#xa7;" glyph-name="section" horiz-adv-x="535" d="M186 -134Q143 -134 109 -130T48 -119T1 -104T-34 -90L-5 38H100Q105 7 123 -11T187 -30Q222 -30 242 -13T262 31Q262 42 258 50T242 68T211 86T161 108Q87 136 51 170T15 262Q15 319 50 360T148
422Q120 456 120 509Q120 550 136 586T183 650T259 693T364 709Q405 709 435 706T488 697T528 684T562 670L535 550H431Q425 575 409 590T349 606Q307 606 291 587T275 545Q275 534 278 526T291 510T319 494T367 476Q452 447 493 413T535 321Q535 199 396 155Q429
119 429 69Q429 24 414 -13T368 -77T292 -119T186 -134ZM286 343Q263 351 245 358T210 374Q181 363 171 347T160 312Q160 293 176 277T246 241Q292 224 328 205Q378 225 378 269Q378 292 357 308T286 343Z" />
<glyph unicode="&#xa8;" glyph-name="dieresis" horiz-adv-x="400" d="M382 561Q347 561 326 582T304 636Q304 673 329 695T390 718Q426 718 447 697T469 643Q469 605 443 583T382 561ZM184 561Q149 561 128 582T107 636Q107 673 132 695T193 718Q228 718 249
697T271 643Q271 605 245 583T184 561Z" />
<glyph unicode="&#xa9;" glyph-name="copyright" horiz-adv-x="754" d="M398 -8Q326 -8 262 15T149 84T72 196T43 350Q43 437 71 503T149 615T262 684T398 708Q470 708 534 685T647 616T724 504T753 350Q753 263 725 197T647 85T534 16T398 -8ZM398 31Q463 31
519 52T617 114T682 214T706 350Q706 426 683 485T618 586T520 648T398 669Q333 669 277 648T179 586T114 486T90 350Q90 273 113 214T178 114T276 52T398 31ZM406 150Q308 150 256 200T204 347Q204 396 218 434T257 498T318 537T396 551Q420 551 436 549T463 545H551V409H471L459
464Q444 469 422 469Q385 469 362 443T339 352Q339 231 417 231Q443 231 460 242T492 271H553V190Q527 172 489 161T406 150Z" />
<glyph unicode="&#xaa;" glyph-name="ordfeminine" horiz-adv-x="467" d="M165 254Q139 254 117 262T78 285T51 322T41 372Q41 409 55 436T95 482T157 510T237 520Q267 520 286 518T320 510L329 545Q335 571 322 586T271 602Q235 602 214 592T179 569H105L131
683Q164 694 205 701T306 708Q406 708 454 669T483 547L443 369Q441 362 446 356T458 349H479L462 274Q445 265 422 259T373 253Q333 253 313 268T286 311Q261 284 231 269T165 254ZM231 343Q249 343 261 350T288 370L305 444Q294 447 283 449T258 451Q223 451
206 431T188 383Q188 343 231 343Z" />
<glyph unicode="&#xab;" glyph-name="guillemotleft" horiz-adv-x="496" d="M234 230L252 307L424 480H523L511 429L381 257V254L433 93L421 40H337L234 230ZM17 231L35 308L207 480H306L294 429L164 258V255L216 93L204 40H121L17 231Z" />
<glyph unicode="&#xad;" glyph-name="uni00AD" horiz-adv-x="287" d="M45 358H287L257 230H15L45 358Z" />
<glyph unicode="&#xae;" glyph-name="registered" horiz-adv-x="387" d="M256 350Q220 350 187 362T130 397T90 453T75 529Q75 572 90 605T129 661T187 696T256 708Q292 708 324 696T382 661T422 605T437 529Q437 487 422 454T382 397T325 362T256 350ZM256 383Q286
383 311 392T356 420T387 466T398 529Q398 565 387 592T357 637T312 665T256 675Q226 675 201 666T156 638T125 592T114 529Q114 493 125 466T155 421T200 393T256 383ZM173 475H181Q188 475 188 483V580Q188 587 181 587H173V619H259Q335 619 335 569Q335 553
328 544T301 529V528Q315 526 321 519T333 494L337 481Q338 475 343 475H348V444H283L277 492Q275 503 271 507T255 512H246V475H263V444H173V475ZM244 542H255Q268 542 272 547T277 564Q277 574 273 579T255 585H244V542Z" />
<glyph unicode="&#xaf;" glyph-name="macron" horiz-adv-x="400" d="M161 685H436L411 580H137L161 685Z" />
<glyph unicode="&#xb0;" glyph-name="degree" horiz-adv-x="347" d="M235 417Q204 417 178 427T133 456T103 499T92 555Q92 590 105 618T141 665T191 695T251 706Q281 706 307 696T353 667T383 624T394 570Q394 534 381 506T345 458T295 428T235 417ZM239 482Q272
482 295 504T319 568Q319 600 300 621T247 642Q214 642 191 620T168 556Q168 524 187 503T239 482Z" />
<glyph unicode="&#xb2;" glyph-name="twosuperior" horiz-adv-x="323" d="M31 362Q43 414 74 446T156 506Q198 529 224 546T250 589Q250 618 216 618Q196 618 181 608T157 584H92L115 685Q140 694 169 700T239 706Q308 706 345 680T383 605Q383 575 373 553T346
515T307 486T261 462Q223 444 197 431T163 399H250L264 427H340L313 310H19L31 362Z" />
<glyph unicode="&#xb3;" glyph-name="threesuperior" horiz-adv-x="319" d="M166 304Q115 304 79 312T23 331L44 417H109Q114 403 125 393T160 383Q183 383 198 395T214 434Q214 451 202 459T169 468H135L153 541H186Q215 541 229 554T244 588Q244 602 235 611T206
620Q187 620 175 613T153 593H90L113 687Q139 695 168 700T230 706Q298 706 334 681T370 612Q370 567 345 542T273 506V504Q307 498 325 479T343 431Q343 371 295 338T166 304Z" />
<glyph unicode="&#xb4;" glyph-name="acute" horiz-adv-x="400" d="M261 700H432L419 647L314 560H212L261 700Z" />
<glyph unicode="&#xb6;" glyph-name="paragraph" horiz-adv-x="558" d="M241 301Q161 309 114 349T66 464Q66 528 88 573T150 646T241 687T352 700H650L625 595H590Q579 595 569 585T556 566L404 -91H308L466 594H404L246 -91H151L241 301Z" />
<glyph unicode="&#xb7;" glyph-name="periodcentered" horiz-adv-x="212" d="M109 207Q71 207 47 232T23 291Q23 311 31 328T52 357T82 376T118 383Q156 383 180 358T205 298Q205 278 197 262T176 233T146 214T109 207Z" />
<glyph unicode="&#xb8;" glyph-name="cedilla" horiz-adv-x="400" d="M109 -175Q77 -175 56 -170T21 -157L35 -97H76Q78 -102 85 -106T104 -111Q132 -111 132 -91Q132 -83 125 -78T103 -72H82L99 0H167L161 -25Q196 -27 213 -44T230 -89Q230 -130 197 -152T109 -175Z" />
<glyph unicode="&#xb9;" glyph-name="onesuperior" horiz-adv-x="267" d="M42 380H83Q88 380 94 385T102 395L149 598L107 577H80L98 654L209 700H309L238 395Q236 391 239 386T247 380H291L274 310H25L42 380Z" />
<glyph unicode="&#xba;" glyph-name="ordmasculine" horiz-adv-x="471" d="M264 253Q162 253 108 305T54 444Q54 502 74 550T129 634T210 688T311 708Q411 708 465 657T520 518Q520 460 501 412T447 328T366 273T264 253ZM267 348Q291 348 309 363T339 404T357
463T364 530Q364 571 349 588T307 606Q284 606 266 591T236 550T216 492T209 425Q209 385 224 367T267 348Z" />
<glyph unicode="&#xbb;" glyph-name="guillemotright" horiz-adv-x="497" d="M202 91L332 262V265L280 427L292 480H376L479 289L461 212L290 40H190L202 91ZM-15 91L115 263V266L63 427L75 480H159L262 290L244 213L73 40H-27L-15 91Z" />
<glyph unicode="&#xbc;" glyph-name="onequarter" horiz-adv-x="733" d="M463 70H492Q497 70 503 75T510 85L514 105H354L374 189L584 390H712L662 177H705L689 105H645L641 85Q640 81 642 76T650 70H680L664 0H447L463 70ZM451 177H536L561 284H559L451 179V177ZM42
380H83Q88 380 94 385T102 395L149 598L107 577H80L98 654L209 700H309L238 395Q236 391 239 386T247 380H291L274 310H25L42 380ZM664 729H767L124 -34H20L664 729Z" />
<glyph unicode="&#xbd;" glyph-name="onehalf" horiz-adv-x="773" d="M409 52Q421 104 452 136T534 196Q576 219 602 236T628 279Q628 308 594 308Q574 308 559 298T535 274H470L493 375Q518 384 547 390T617 396Q686 396 723 370T761 295Q761 265 751 243T724
205T685 176T639 152Q601 134 575 121T541 89H628L642 117H718L691 0H397L409 52ZM42 380H83Q88 380 94 385T102 395L149 598L107 577H80L98 654L209 700H309L238 395Q236 391 239 386T247 380H291L274 310H25L42 380ZM658 729H761L118 -34H14L658 729Z" />
<glyph unicode="&#xbe;" glyph-name="threequarters" horiz-adv-x="737" d="M166 304Q115 304 79 312T23 331L44 417H109Q114 403 125 393T160 383Q183 383 198 395T214 434Q214 451 202 459T169 468H135L153 541H186Q215 541 229 554T244 588Q244 602 235 611T206
620Q187 620 175 613T153 593H90L113 687Q139 695 168 700T230 706Q298 706 334 681T370 612Q370 567 345 542T273 506V504Q307 498 325 479T343 431Q343 371 295 338T166 304ZM466 70H495Q500 70 506 75T513 85L517 105H357L377 189L587 390H715L665 177H708L692
105H648L644 85Q643 81 645 76T653 70H683L667 0H450L466 70ZM454 177H539L564 284H562L454 179V177ZM674 729H777L134 -34H30L674 729Z" />
<glyph unicode="&#xbf;" glyph-name="questiondown" horiz-adv-x="447" d="M321 462Q282 462 258 487T233 547Q233 566 241 583T262 612T293 631T329 638Q367 638 391 613T416 554Q416 534 408 518T387 489T357 469T321 462ZM181 -78Q78 -78 26 -36T-26 76Q-26
115 -15 144T17 198T64 241T124 280Q154 298 177 313T218 344T244 378T256 420H361Q361 391 357 366T343 319T314 275T267 229Q254 218 236 205T201 175T173 138T161 94Q161 72 174 59T213 45Q244 45 263 60T297 101H398L365 -45Q327 -60 283 -69T181 -78Z" />
<glyph unicode="&#xc0;" glyph-name="Agrave" horiz-adv-x="731" d="M-27 101H-10Q4 101 16 109T36 132L287 566Q293 577 292 586T279 595H231L255 700H586L637 126Q639 116 647 109T664 101H685L661 0H340L363 101H449L440 215H223L209 191Q186 147 187 124T224
101H257L234 0H-50L-27 101ZM275 311H434L417 564H415L275 311ZM321 820L333 873H479L506 733H410L321 820Z" />
<glyph unicode="&#xc1;" glyph-name="Aacute" horiz-adv-x="731" d="M-27 101H-10Q4 101 16 109T36 132L287 566Q293 577 292 586T279 595H231L255 700H586L637 126Q639 116 647 109T664 101H685L661 0H340L363 101H449L440 215H223L209 191Q186 147 187 124T224
101H257L234 0H-50L-27 101ZM275 311H434L417 564H415L275 311ZM440 873H611L598 820L493 733H391L440 873Z" />
<glyph unicode="&#xc2;" glyph-name="Acircumflex" horiz-adv-x="731" d="M-27 101H-10Q4 101 16 109T36 132L287 566Q293 577 292 586T279 595H231L255 700H586L637 126Q639 116 647 109T664 101H685L661 0H340L363 101H449L440 215H223L209 191Q186 147 187
124T224 101H257L234 0H-50L-27 101ZM275 311H434L417 564H415L275 311ZM319 771L409 873H537L594 771L585 733H520L460 787L378 733H310L319 771Z" />
<glyph unicode="&#xc3;" glyph-name="Atilde" horiz-adv-x="731" d="M-27 101H-10Q4 101 16 109T36 132L287 566Q293 577 292 586T279 595H231L255 700H586L637 126Q639 116 647 109T664 101H685L661 0H340L363 101H449L440 215H223L209 191Q186 147 187 124T224
101H257L234 0H-50L-27 101ZM275 311H434L417 564H415L275 311ZM297 806Q312 832 338 850T403 868Q420 868 438 865T472 858T503 851T528 848Q557 848 571 873H649L632 799Q617 774 591 755T525 736Q508 736 490 739T456 747T425 756T400 760Q385 760 375 753T358
733H281L297 806Z" />
<glyph unicode="&#xc4;" glyph-name="Adieresis" horiz-adv-x="731" d="M-27 101H-10Q4 101 16 109T36 132L287 566Q293 577 292 586T279 595H231L255 700H586L637 126Q639 116 647 109T664 101H685L661 0H340L363 101H449L440 215H223L209 191Q186 147 187 124T224
101H257L234 0H-50L-27 101ZM275 311H434L417 564H415L275 311ZM561 734Q526 734 505 755T483 809Q483 846 508 868T569 891Q605 891 626 870T648 816Q648 778 622 756T561 734ZM363 734Q328 734 307 755T286 809Q286 846 311 868T372 891Q407 891 428 870T450
816Q450 778 424 756T363 734Z" />
<glyph unicode="&#xc5;" glyph-name="Aring" horiz-adv-x="731" d="M-27 101H-10Q4 101 16 109T36 132L287 566Q293 577 292 586T279 595H231L255 700H586L637 126Q639 116 647 109T664 101H685L661 0H340L363 101H449L440 215H223L209 191Q186 147 187 124T224
101H257L234 0H-50L-27 101ZM275 311H434L417 564H415L275 311ZM456 735Q412 735 383 761T353 831Q353 857 362 877T387 911T423 932T465 939Q508 939 537 913T566 843Q566 817 557 797T533 763T497 742T456 735ZM457 785Q479 785 494 799T510 840Q510 862 498
876T462 890Q439 890 425 875T410 832Q410 811 422 798T457 785Z" />
<glyph unicode="&#xc6;" glyph-name="AE" horiz-adv-x="974" d="M1005 493H893L896 587H718L677 409H761L782 470H885L832 241H731L737 303H653L608 109H795L836 221H954L904 0H332L355 101H416L442 215H239L220 190Q188 147 192 124T234 101H263L240 0H-52L-29
101H-9Q16 101 39 132L368 566Q376 577 372 586T357 595H313L337 700H1052L1005 493ZM311 311H464L528 587H520L311 311Z" />
<glyph unicode="&#xc7;" glyph-name="Ccedilla" horiz-adv-x="621" d="M230 -175Q198 -175 177 -170T142 -157L156 -97H196Q199 -102 206 -106T224 -111Q253 -111 253 -91Q253 -83 246 -78T223 -72H203L220 3Q125 27 77 94T29 264Q29 358 60 439T146 580T278 674T443
709Q488 709 511 706T547 700H700L645 463H525V572Q512 577 495 581T457 585Q408 585 366 563T292 500T242 399T223 264Q223 114 344 114Q395 114 428 133T494 186H587L556 50Q510 23 454 7T326 -9Q315 -9 306 -9T286 -7L282 -25Q317 -27 334 -44T351 -89Q351 -130
318 -152T230 -175Z" />
<glyph unicode="&#xc8;" glyph-name="Egrave" horiz-adv-x="598" d="M628 493H516L520 587H338L297 409H385L406 470H509L456 241H355L361 303H272L228 109H418L460 221H578L527 0H-49L-26 101H9Q20 101 30 111T43 131L143 566Q145 575 141 585T126 595H87L112
700H676L628 493ZM282 820L294 873H440L467 733H371L282 820Z" />
<glyph unicode="&#xc9;" glyph-name="Eacute" horiz-adv-x="598" d="M401 873H572L559 820L454 733H352L401 873ZM628 493H516L520 587H338L297 409H385L406 470H509L456 241H355L361 303H272L228 109H418L460 221H578L527 0H-49L-26 101H9Q20 101 30 111T43 131L143
566Q145 575 141 585T126 595H87L112 700H676L628 493Z" />
<glyph unicode="&#xca;" glyph-name="Ecircumflex" horiz-adv-x="598" d="M280 771L370 873H498L555 771L546 733H481L421 787L339 733H271L280 771ZM628 493H516L520 587H338L297 409H385L406 470H509L456 241H355L361 303H272L228 109H418L460 221H578L527 0H-49L-26
101H9Q20 101 30 111T43 131L143 566Q145 575 141 585T126 595H87L112 700H676L628 493Z" />
<glyph unicode="&#xcb;" glyph-name="Edieresis" horiz-adv-x="598" d="M522 734Q487 734 466 755T444 809Q444 846 469 868T530 891Q566 891 587 870T609 816Q609 778 583 756T522 734ZM324 734Q289 734 268 755T247 809Q247 846 272 868T333 891Q368 891 389
870T411 816Q411 778 385 756T324 734ZM628 493H516L520 587H338L297 409H385L406 470H509L456 241H355L361 303H272L228 109H418L460 221H578L527 0H-49L-26 101H9Q20 101 30 111T43 131L143 566Q145 575 141 585T126 595H87L112 700H676L628 493Z" />
<glyph unicode="&#xcc;" glyph-name="Igrave" horiz-adv-x="349" d="M-26 101H16Q26 101 36 111T49 131L149 566Q151 575 147 585T133 595H87L112 700H440L416 595H373Q362 595 352 585T340 566L240 131Q238 122 242 112T256 101H302L279 0H-49L-26 101ZM155 820L167
873H313L340 733H244L155 820Z" />
<glyph unicode="&#xcd;" glyph-name="Iacute" horiz-adv-x="349" d="M-26 101H16Q26 101 36 111T49 131L149 566Q151 575 147 585T133 595H87L112 700H440L416 595H373Q362 595 352 585T340 566L240 131Q238 122 242 112T256 101H302L279 0H-49L-26 101ZM274 873H445L432
820L327 733H225L274 873Z" />
<glyph unicode="&#xce;" glyph-name="Icircumflex" horiz-adv-x="349" d="M-26 101H16Q26 101 36 111T49 131L149 566Q151 575 147 585T133 595H87L112 700H440L416 595H373Q362 595 352 585T340 566L240 131Q238 122 242 112T256 101H302L279 0H-49L-26 101ZM153
771L243 873H371L428 771L419 733H354L294 787L212 733H144L153 771Z" />
<glyph unicode="&#xcf;" glyph-name="Idieresis" horiz-adv-x="349" d="M-26 101H16Q26 101 36 111T49 131L149 566Q151 575 147 585T133 595H87L112 700H440L416 595H373Q362 595 352 585T340 566L240 131Q238 122 242 112T256 101H302L279 0H-49L-26 101ZM395
734Q360 734 339 755T317 809Q317 846 342 868T403 891Q439 891 460 870T482 816Q482 778 456 756T395 734ZM197 734Q162 734 141 755T120 809Q120 846 145 868T206 891Q241 891 262 870T284 816Q284 778 258 756T197 734Z" />
<glyph unicode="&#xd0;" glyph-name="Eth" horiz-adv-x="707" d="M42 398H104L143 566Q145 575 140 585T125 595H87L112 700H394Q550 700 634 628T719 417Q719 324 690 248T604 116T464 31T274 0H-49L-26 101H8Q18 101 29 111T43 131L81 296H19L42 398ZM285 106Q341
106 386 128T462 191T511 292T528 427Q528 511 488 549T375 588H338L295 398H417L394 296H271L228 106H285Z" />
<glyph unicode="&#xd1;" glyph-name="Ntilde" horiz-adv-x="714" d="M-26 101H9Q20 101 30 111T43 131L143 566Q145 575 141 585T126 595H87L112 700H361L507 275H510L585 595H514L539 700H807L783 595H749Q739 595 729 585T716 566L587 0H426L260 465H257L174
101H247L224 0H-49L-26 101ZM314 806Q329 832 355 850T420 868Q437 868 455 865T489 858T520 851T545 848Q574 848 588 873H666L649 799Q634 774 608 755T542 736Q525 736 507 739T473 747T442 756T417 760Q402 760 392 753T375 733H298L314 806Z" />
<glyph unicode="&#xd2;" glyph-name="Ograve" horiz-adv-x="715" d="M334 -9Q263 -9 207 10T111 66T50 156T28 277Q28 370 59 448T144 585T270 675T426 708Q494 708 549 689T644 632T704 542T726 423Q726 326 696 247T613 110T488 22T334 -9ZM341 111Q386 111
422 137T484 207T522 308T536 425Q536 502 505 542T414 582Q369 582 333 557T271 488T233 388T219 268Q219 192 250 152T341 111ZM324 828L336 881H482L509 741H413L324 828Z" />
<glyph unicode="&#xd3;" glyph-name="Oacute" horiz-adv-x="715" d="M443 881H614L601 828L496 741H394L443 881ZM334 -9Q263 -9 207 10T111 66T50 156T28 277Q28 370 59 448T144 585T270 675T426 708Q494 708 549 689T644 632T704 542T726 423Q726 326 696 247T613
110T488 22T334 -9ZM341 111Q386 111 422 137T484 207T522 308T536 425Q536 502 505 542T414 582Q369 582 333 557T271 488T233 388T219 268Q219 192 250 152T341 111Z" />
<glyph unicode="&#xd4;" glyph-name="Ocircumflex" horiz-adv-x="715" d="M322 779L412 881H540L597 779L588 741H523L463 795L381 741H313L322 779ZM334 -9Q263 -9 207 10T111 66T50 156T28 277Q28 370 59 448T144 585T270 675T426 708Q494 708 549 689T644 632T704
542T726 423Q726 326 696 247T613 110T488 22T334 -9ZM341 111Q386 111 422 137T484 207T522 308T536 425Q536 502 505 542T414 582Q369 582 333 557T271 488T233 388T219 268Q219 192 250 152T341 111Z" />
<glyph unicode="&#xd5;" glyph-name="Otilde" horiz-adv-x="715" d="M334 -9Q263 -9 207 10T111 66T50 156T28 277Q28 370 59 448T144 585T270 675T426 708Q494 708 549 689T644 632T704 542T726 423Q726 326 696 247T613 110T488 22T334 -9ZM341 111Q386 111
422 137T484 207T522 308T536 425Q536 502 505 542T414 582Q369 582 333 557T271 488T233 388T219 268Q219 192 250 152T341 111ZM300 814Q315 840 341 858T406 876Q423 876 441 873T475 866T506 859T531 856Q560 856 574 881H652L635 807Q620 782 594 763T528
744Q511 744 493 747T459 755T428 764T403 768Q388 768 378 761T361 741H284L300 814Z" />
<glyph unicode="&#xd6;" glyph-name="Odieresis" horiz-adv-x="715" d="M559 723Q524 723 503 744T481 798Q481 835 506 857T567 880Q603 880 624 859T646 805Q646 767 620 745T559 723ZM361 723Q326 723 305 744T284 798Q284 835 309 857T370 880Q405 880 426
859T448 805Q448 767 422 745T361 723ZM334 -9Q263 -9 207 10T111 66T50 156T28 277Q28 370 59 448T144 585T270 675T426 708Q494 708 549 689T644 632T704 542T726 423Q726 326 696 247T613 110T488 22T334 -9ZM341 111Q386 111 422 137T484 207T522 308T536 425Q536
502 505 542T414 582Q369 582 333 557T271 488T233 388T219 268Q219 192 250 152T341 111Z" />
<glyph unicode="&#xd7;" glyph-name="multiply" horiz-adv-x="520" d="M21 202L190 344L78 486L183 572L293 431L459 572L535 480L368 337L479 196L376 109L264 250L98 109L21 202Z" />
<glyph unicode="&#xd8;" glyph-name="Oslash" horiz-adv-x="715" d="M334 -9Q220 -9 145 39L82 -29H-13L92 85Q61 121 45 169T28 277Q28 370 59 448T144 585T270 675T426 708Q540 708 617 654L679 721H774L668 606Q696 571 711 525T726 423Q726 326 696 247T613
110T488 22T334 -9ZM215 268Q215 257 216 245T220 223L510 538Q478 584 415 584Q369 584 332 558T269 489T229 388T215 268ZM341 109Q387 109 423 135T485 206T525 307T539 425Q539 436 538 445T535 462L247 150Q279 109 341 109Z" />
<glyph unicode="&#xd9;" glyph-name="Ugrave" horiz-adv-x="714" d="M337 -8Q256 -8 199 11T110 67T69 154T75 270L142 566Q144 575 140 585T126 595H88L112 700H438L414 595H340L260 248Q251 209 254 183T271 141T306 119T356 112Q389 112 412 119T453 143T481
186T501 250L580 595H505L530 700H806L782 595H748Q737 595 727 585T714 566L639 240Q625 179 601 133T541 56T455 8T337 -8ZM352 820L364 873H510L537 733H441L352 820Z" />
<glyph unicode="&#xda;" glyph-name="Uacute" horiz-adv-x="714" d="M471 873H642L629 820L524 733H422L471 873ZM337 -8Q256 -8 199 11T110 67T69 154T75 270L142 566Q144 575 140 585T126 595H88L112 700H438L414 595H340L260 248Q251 209 254 183T271 141T306
119T356 112Q389 112 412 119T453 143T481 186T501 250L580 595H505L530 700H806L782 595H748Q737 595 727 585T714 566L639 240Q625 179 601 133T541 56T455 8T337 -8Z" />
<glyph unicode="&#xdb;" glyph-name="Ucircumflex" horiz-adv-x="714" d="M350 771L440 873H568L625 771L616 733H551L491 787L409 733H341L350 771ZM337 -8Q256 -8 199 11T110 67T69 154T75 270L142 566Q144 575 140 585T126 595H88L112 700H438L414 595H340L260
248Q251 209 254 183T271 141T306 119T356 112Q389 112 412 119T453 143T481 186T501 250L580 595H505L530 700H806L782 595H748Q737 595 727 585T714 566L639 240Q625 179 601 133T541 56T455 8T337 -8Z" />
<glyph unicode="&#xdc;" glyph-name="Udieresis" horiz-adv-x="714" d="M592 734Q557 734 536 755T514 809Q514 846 539 868T600 891Q636 891 657 870T679 816Q679 778 653 756T592 734ZM394 734Q359 734 338 755T317 809Q317 846 342 868T403 891Q438 891 459
870T481 816Q481 778 455 756T394 734ZM337 -8Q256 -8 199 11T110 67T69 154T75 270L142 566Q144 575 140 585T126 595H88L112 700H438L414 595H340L260 248Q251 209 254 183T271 141T306 119T356 112Q389 112 412 119T453 143T481 186T501 250L580 595H505L530
700H806L782 595H748Q737 595 727 585T714 566L639 240Q625 179 601 133T541 56T455 8T337 -8Z" />
<glyph unicode="&#xdd;" glyph-name="Yacute" horiz-adv-x="669" d="M141 101H182Q193 101 203 111T216 131L251 286L133 573Q125 595 109 595H87L112 700H414L390 595H319L395 394H398L499 529Q523 561 517 578T479 595H459L483 700H761L737 595H722Q711 595
699 587T677 568L439 276L407 131Q405 122 408 112T423 101H467L444 0H118L141 101ZM443 873H614L601 820L496 733H394L443 873Z" />
<glyph unicode="&#xde;" glyph-name="Thorn" horiz-adv-x="622" d="M-26 101H8Q18 101 29 111T43 131L143 566Q145 575 140 585T125 595H87L112 700H436L411 595H341L327 539H392Q445 539 489 531T565 505T614 457T632 385Q632 326 610 284T548 215T453 176T332
163H241L227 101H303L280 0H-49L-26 101ZM303 436L262 259H329Q387 259 412 290T438 367Q438 401 420 418T358 436H303Z" />
<glyph unicode="&#xdf;" glyph-name="germandbls" horiz-adv-x="638" d="M-79 -68Q-54 -61 -35 -40T-4 31L101 515Q110 557 132 593T191 655T279 695T397 710Q446 710 488 701T561 674T609 631T627 573Q627 530 602 502T539 448Q497 421 470 400T443 363Q443 356
446 351T458 339T479 323T514 300Q533 288 549 275T578 246T598 212T605 170Q605 134 591 102T548 46T478 7T383 -7Q330 -7 293 3T226 27L253 144H342Q346 123 358 109T394 95Q414 95 429 105T444 135Q444 154 424 167T374 199Q331 227 310 251T288 315Q288 356
314 389T371 451Q403 481 424 504T445 551Q445 571 430 584T385 597Q359 597 341 589T310 568T290 537T279 502L172 28Q154 -54 112 -98T17 -162H-100L-79 -68Z" />
<glyph unicode="&#xe0;" glyph-name="agrave" horiz-adv-x="537" d="M129 -6Q66 -6 28 28T-11 129Q-11 174 6 208T53 266T125 301T216 313Q253 313 275 310T315 301L325 346Q332 378 317 396T256 414Q234 414 218 411T190 402T167 389T146 372H66L96 504Q116 510
136 516T181 526T233 532T298 535Q418 535 471 489T503 348L452 126Q450 118 456 110T470 101H495L476 16Q456 5 430 -1T374 -8Q326 -8 304 11T275 60Q216 -6 129 -6ZM208 95Q229 95 244 103T274 126L296 220Q285 223 271 225T242 227Q200 227 179 203T157 146Q157
122 169 109T208 95ZM195 647L207 700H353L380 560H284L195 647Z" />
<glyph unicode="&#xe1;" glyph-name="aacute" horiz-adv-x="537" d="M129 -6Q66 -6 28 28T-11 129Q-11 174 6 208T53 266T125 301T216 313Q253 313 275 310T315 301L325 346Q332 378 317 396T256 414Q234 414 218 411T190 402T167 389T146 372H66L96 504Q116 510
136 516T181 526T233 532T298 535Q418 535 471 489T503 348L452 126Q450 118 456 110T470 101H495L476 16Q456 5 430 -1T374 -8Q326 -8 304 11T275 60Q216 -6 129 -6ZM208 95Q229 95 244 103T274 126L296 220Q285 223 271 225T242 227Q200 227 179 203T157 146Q157
122 169 109T208 95ZM314 700H485L472 647L367 560H265L314 700Z" />
<glyph unicode="&#xe2;" glyph-name="acircumflex" horiz-adv-x="537" d="M129 -6Q66 -6 28 28T-11 129Q-11 174 6 208T53 266T125 301T216 313Q253 313 275 310T315 301L325 346Q332 378 317 396T256 414Q234 414 218 411T190 402T167 389T146 372H66L96 504Q116
510 136 516T181 526T233 532T298 535Q418 535 471 489T503 348L452 126Q450 118 456 110T470 101H495L476 16Q456 5 430 -1T374 -8Q326 -8 304 11T275 60Q216 -6 129 -6ZM208 95Q229 95 244 103T274 126L296 220Q285 223 271 225T242 227Q200 227 179 203T157
146Q157 122 169 109T208 95ZM193 598L283 700H411L468 598L459 560H394L334 614L252 560H184L193 598Z" />
<glyph unicode="&#xe3;" glyph-name="atilde" horiz-adv-x="537" d="M129 -6Q66 -6 28 28T-11 129Q-11 174 6 208T53 266T125 301T216 313Q253 313 275 310T315 301L325 346Q332 378 317 396T256 414Q234 414 218 411T190 402T167 389T146 372H66L96 504Q116 510
136 516T181 526T233 532T298 535Q418 535 471 489T503 348L452 126Q450 118 456 110T470 101H495L476 16Q456 5 430 -1T374 -8Q326 -8 304 11T275 60Q216 -6 129 -6ZM208 95Q229 95 244 103T274 126L296 220Q285 223 271 225T242 227Q200 227 179 203T157 146Q157
122 169 109T208 95ZM163 633Q178 659 204 677T269 695Q286 695 304 692T338 685T369 678T394 675Q423 675 437 700H515L498 626Q483 601 457 582T391 563Q374 563 356 566T322 574T291 583T266 587Q251 587 241 580T224 560H147L163 633Z" />
<glyph unicode="&#xe4;" glyph-name="adieresis" horiz-adv-x="537" d="M129 -6Q66 -6 28 28T-11 129Q-11 174 6 208T53 266T125 301T216 313Q253 313 275 310T315 301L325 346Q332 378 317 396T256 414Q234 414 218 411T190 402T167 389T146 372H66L96 504Q116
510 136 516T181 526T233 532T298 535Q418 535 471 489T503 348L452 126Q450 118 456 110T470 101H495L476 16Q456 5 430 -1T374 -8Q326 -8 304 11T275 60Q216 -6 129 -6ZM208 95Q229 95 244 103T274 126L296 220Q285 223 271 225T242 227Q200 227 179 203T157
146Q157 122 169 109T208 95ZM427 561Q392 561 371 582T349 636Q349 673 374 695T435 718Q471 718 492 697T514 643Q514 605 488 583T427 561ZM229 561Q194 561 173 582T152 636Q152 673 177 695T238 718Q273 718 294 697T316 643Q316 605 290 583T229 561Z" />
<glyph unicode="&#xe5;" glyph-name="aring" horiz-adv-x="537" d="M129 -6Q66 -6 28 28T-11 129Q-11 174 6 208T53 266T125 301T216 313Q253 313 275 310T315 301L325 346Q332 378 317 396T256 414Q234 414 218 411T190 402T167 389T146 372H66L96 504Q116 510
136 516T181 526T233 532T298 535Q418 535 471 489T503 348L452 126Q450 118 456 110T470 101H495L476 16Q456 5 430 -1T374 -8Q326 -8 304 11T275 60Q216 -6 129 -6ZM208 95Q229 95 244 103T274 126L296 220Q285 223 271 225T242 227Q200 227 179 203T157 146Q157
122 169 109T208 95ZM330 562Q286 562 257 588T227 658Q227 684 236 704T261 738T297 759T339 766Q382 766 411 740T440 670Q440 644 431 624T407 590T371 569T330 562ZM331 612Q353 612 368 626T384 667Q384 689 372 703T336 717Q313 717 299 702T284 659Q284
638 296 625T331 612Z" />
<glyph unicode="&#xe6;" glyph-name="ae" horiz-adv-x="799" d="M141 -6Q69 -6 29 30T-11 132Q-11 176 5 210T50 266T119 300T209 312Q245 312 268 310T310 302L320 346Q328 378 313 396T256 414Q234 414 219 411T191 402T168 389T147 374H66L96 504Q116 510 136
516T181 526T233 532T298 535Q409 535 447 484Q514 535 615 535Q708 535 758 494T808 387Q808 334 784 301T716 247T608 219T468 208Q468 151 486 126T550 100Q587 100 612 115T652 149H744L716 28Q684 14 639 3T537 -8Q455 -8 404 16T326 83Q291 38 244 16T141
-6ZM595 432Q549 432 520 394T477 297Q562 303 603 320T645 379Q645 402 633 417T595 432ZM302 143Q296 171 296 206V222Q283 225 268 226T237 227Q194 227 176 203T157 146Q157 123 170 109T210 95Q237 95 260 109T302 143Z" />
<glyph unicode="&#xe7;" glyph-name="ccedilla" horiz-adv-x="479" d="M158 -175Q125 -175 104 -170T70 -157L84 -97H124Q127 -102 133 -106T152 -111Q180 -111 180 -91Q180 -83 173 -78T151 -72H131L147 4Q75 24 41 74T7 195Q7 270 31 332T99 440T203 510T333
535Q394 535 439 526T514 502L484 372H393Q386 393 373 407T325 422Q292 422 266 402T221 348T192 274T182 190Q182 100 258 100Q296 100 315 115T348 151H440L411 27Q380 13 341 3T244 -8Q236 -8 229 -8T213 -6L210 -25Q245 -27 262 -44T279 -89Q279 -130 246
-152T158 -175Z" />
<glyph unicode="&#xe8;" glyph-name="egrave" horiz-adv-x="512" d="M248 -8Q185 -8 140 7T66 51T23 117T9 202Q9 274 34 335T101 440T202 510T326 535Q420 535 470 494T521 387Q521 334 497 300T429 244T321 214T180 201Q181 148 200 124T258 100Q299 100 324
116T366 151H458L429 28Q399 14 354 3T248 -8ZM307 431Q284 431 265 420T231 391T206 347T189 292Q274 299 315 318T357 379Q357 402 345 416T307 431ZM195 647L207 700H353L380 560H284L195 647Z" />
<glyph unicode="&#xe9;" glyph-name="eacute" horiz-adv-x="512" d="M314 700H485L472 647L367 560H265L314 700ZM248 -8Q185 -8 140 7T66 51T23 117T9 202Q9 274 34 335T101 440T202 510T326 535Q420 535 470 494T521 387Q521 334 497 300T429 244T321 214T180
201Q181 148 200 124T258 100Q299 100 324 116T366 151H458L429 28Q399 14 354 3T248 -8ZM307 431Q284 431 265 420T231 391T206 347T189 292Q274 299 315 318T357 379Q357 402 345 416T307 431Z" />
<glyph unicode="&#xea;" glyph-name="ecircumflex" horiz-adv-x="512" d="M193 598L283 700H411L468 598L459 560H394L334 614L252 560H184L193 598ZM248 -8Q185 -8 140 7T66 51T23 117T9 202Q9 274 34 335T101 440T202 510T326 535Q420 535 470 494T521 387Q521
334 497 300T429 244T321 214T180 201Q181 148 200 124T258 100Q299 100 324 116T366 151H458L429 28Q399 14 354 3T248 -8ZM307 431Q284 431 265 420T231 391T206 347T189 292Q274 299 315 318T357 379Q357 402 345 416T307 431Z" />
<glyph unicode="&#xeb;" glyph-name="edieresis" horiz-adv-x="512" d="M435 561Q400 561 379 582T357 636Q357 673 382 695T443 718Q479 718 500 697T522 643Q522 605 496 583T435 561ZM237 561Q202 561 181 582T160 636Q160 673 185 695T246 718Q281 718 302
697T324 643Q324 605 298 583T237 561ZM248 -8Q185 -8 140 7T66 51T23 117T9 202Q9 274 34 335T101 440T202 510T326 535Q420 535 470 494T521 387Q521 334 497 300T429 244T321 214T180 201Q181 148 200 124T258 100Q299 100 324 116T366 151H458L429 28Q399 14
354 3T248 -8ZM307 431Q284 431 265 420T231 391T206 347T189 292Q274 299 315 318T357 379Q357 402 345 416T307 431Z" />
<glyph unicode="&#xec;" glyph-name="igrave" horiz-adv-x="299" d="M127 -8Q61 -8 38 26T29 121L92 393Q94 401 89 410T75 419H41L62 512Q85 520 113 526T187 532Q241 532 265 503T276 419L208 126Q206 118 212 110T226 101H256L237 13Q217 3 188 -2T127 -8ZM342
647L354 700H500L527 560H431L342 647Z" />
<glyph unicode="&#xed;" glyph-name="iacute" horiz-adv-x="299" d="M461 700H632L619 647L514 560H412L461 700ZM127 -8Q61 -8 38 26T29 121L92 393Q94 401 89 410T75 419H41L62 512Q85 520 113 526T187 532Q241 532 265 503T276 419L208 126Q206 118 212 110T226
101H256L237 13Q217 3 188 -2T127 -8Z" />
<glyph unicode="&#xee;" glyph-name="icircumflex" horiz-adv-x="299" d="M340 598L430 700H558L615 598L606 560H541L481 614L399 560H331L340 598ZM127 -8Q61 -8 38 26T29 121L92 393Q94 401 89 410T75 419H41L62 512Q85 520 113 526T187 532Q241 532 265 503T276
419L208 126Q206 118 212 110T226 101H256L237 13Q217 3 188 -2T127 -8Z" />
<glyph unicode="&#xef;" glyph-name="idieresis" horiz-adv-x="299" d="M582 561Q547 561 526 582T504 636Q504 673 529 695T590 718Q626 718 647 697T669 643Q669 605 643 583T582 561ZM384 561Q349 561 328 582T307 636Q307 673 332 695T393 718Q428 718 449
697T471 643Q471 605 445 583T384 561ZM127 -8Q61 -8 38 26T29 121L92 393Q94 401 89 410T75 419H41L62 512Q85 520 113 526T187 532Q241 532 265 503T276 419L208 126Q206 118 212 110T226 101H256L237 13Q217 3 188 -2T127 -8Z" />
<glyph unicode="&#xf0;" glyph-name="eth" horiz-adv-x="561" d="M176 545L231 585L188 597L212 700H284Q302 694 319 688T353 674L389 700H474L468 673L419 636Q482 591 520 521T559 345Q559 259 536 193T471 83T373 16T250 -7Q192 -7 147 9T70 54T23 124T7 215Q7
281 29 333T87 422T166 478T252 498Q291 498 317 488T363 457Q352 488 335 510T298 549L255 518H169L176 545ZM256 99Q285 99 308 118T346 167T370 234T379 308Q379 356 360 378T304 400Q275 400 253 382T214 335T190 269T181 195Q181 147 200 123T256 99Z" />
<glyph unicode="&#xf1;" glyph-name="ntilde" horiz-adv-x="604" d="M436 -8Q370 -8 347 26T339 121L390 345Q396 371 388 384T353 397Q332 397 309 389T261 364L177 0H27Q16 0 10 9T6 32L89 393Q91 401 86 410T72 419H41L62 512Q85 520 111 526T184 532Q229 532
253 509T275 438Q295 457 318 474T367 505T420 527T477 535Q543 535 568 497T580 397L517 126Q515 118 521 110T535 101H562L543 13Q523 3 496 -2T436 -8ZM209 633Q224 659 250 677T315 695Q332 695 350 692T384 685T415 678T440 675Q469 675 483 700H561L544 626Q529
601 503 582T437 563Q420 563 402 566T368 574T337 583T312 587Q297 587 287 580T270 560H193L209 633Z" />
<glyph unicode="&#xf2;" glyph-name="ograve" horiz-adv-x="560" d="M253 -7Q135 -7 72 54T8 220Q8 289 31 347T95 446T191 511T309 535Q427 535 490 474T553 308Q553 239 531 181T468 82T373 17T253 -7ZM257 101Q285 101 308 120T346 170T370 241T379 323Q379
371 360 395T305 419Q277 419 254 400T215 349T191 278T182 197Q182 101 257 101ZM199 647L211 700H357L384 560H288L199 647Z" />
<glyph unicode="&#xf3;" glyph-name="oacute" horiz-adv-x="560" d="M318 700H489L476 647L371 560H269L318 700ZM253 -7Q135 -7 72 54T8 220Q8 289 31 347T95 446T191 511T309 535Q427 535 490 474T553 308Q553 239 531 181T468 82T373 17T253 -7ZM257 101Q285
101 308 120T346 170T370 241T379 323Q379 371 360 395T305 419Q277 419 254 400T215 349T191 278T182 197Q182 101 257 101Z" />
<glyph unicode="&#xf4;" glyph-name="ocircumflex" horiz-adv-x="560" d="M197 598L287 700H415L472 598L463 560H398L338 614L256 560H188L197 598ZM253 -7Q135 -7 72 54T8 220Q8 289 31 347T95 446T191 511T309 535Q427 535 490 474T553 308Q553 239 531 181T468
82T373 17T253 -7ZM257 101Q285 101 308 120T346 170T370 241T379 323Q379 371 360 395T305 419Q277 419 254 400T215 349T191 278T182 197Q182 101 257 101Z" />
<glyph unicode="&#xf5;" glyph-name="otilde" horiz-adv-x="560" d="M253 -7Q135 -7 72 54T8 220Q8 289 31 347T95 446T191 511T309 535Q427 535 490 474T553 308Q553 239 531 181T468 82T373 17T253 -7ZM257 101Q285 101 308 120T346 170T370 241T379 323Q379
371 360 395T305 419Q277 419 254 400T215 349T191 278T182 197Q182 101 257 101ZM175 633Q190 659 216 677T281 695Q298 695 316 692T350 685T381 678T406 675Q435 675 449 700H527L510 626Q495 601 469 582T403 563Q386 563 368 566T334 574T303 583T278 587Q263
587 253 580T236 560H159L175 633Z" />
<glyph unicode="&#xf6;" glyph-name="odieresis" horiz-adv-x="560" d="M439 561Q404 561 383 582T361 636Q361 673 386 695T447 718Q483 718 504 697T526 643Q526 605 500 583T439 561ZM241 561Q206 561 185 582T164 636Q164 673 189 695T250 718Q285 718 306
697T328 643Q328 605 302 583T241 561ZM253 -7Q135 -7 72 54T8 220Q8 289 31 347T95 446T191 511T309 535Q427 535 490 474T553 308Q553 239 531 181T468 82T373 17T253 -7ZM257 101Q285 101 308 120T346 170T370 241T379 323Q379 371 360 395T305 419Q277 419
254 400T215 349T191 278T182 197Q182 101 257 101Z" />
<glyph unicode="&#xf7;" glyph-name="divide" horiz-adv-x="513" d="M306 444Q268 444 244 469T221 528Q223 567 251 593T318 620Q356 620 380 595T403 535Q403 515 395 499T373 470T342 451T306 444ZM49 411H534L503 280H18L49 411ZM233 71Q195 71 171 96T149
156Q149 175 157 192T178 221T209 240T246 247Q284 247 308 222T331 162Q330 142 322 126T301 97T270 78T233 71Z" />
<glyph unicode="&#xf8;" glyph-name="oslash" horiz-adv-x="560" d="M59 68Q8 126 8 221Q8 288 31 345T95 445T191 511T309 535Q399 535 461 495L509 548H595L507 453Q553 396 553 308Q553 240 531 183T468 83T373 17T253 -7Q166 -7 107 28L53 -29H-33L59 68ZM256
99Q285 99 308 117T347 164T372 231T382 309Q382 311 382 312T381 316V321L199 124Q219 99 256 99ZM364 395Q344 421 306 421Q278 421 255 403T216 355T190 288T179 211Q179 203 180 200Q180 197 181 196L364 395Z" />
<glyph unicode="&#xf9;" glyph-name="ugrave" horiz-adv-x="600" d="M431 -8Q378 -8 352 12T328 80Q286 39 241 16T142 -8Q73 -8 44 35T31 149L87 393Q89 401 84 410T71 419H41L62 512Q85 520 113 526T182 533Q240 533 261 498T269 408L216 177Q211 151 219 136T256
120Q292 120 339 149L426 526H576Q588 526 594 517T597 494L512 126Q510 118 516 110T530 101H558L539 13Q519 3 491 -2T431 -8ZM228 647L240 700H386L413 560H317L228 647Z" />
<glyph unicode="&#xfa;" glyph-name="uacute" horiz-adv-x="600" d="M347 700H518L505 647L400 560H298L347 700ZM431 -8Q378 -8 352 12T328 80Q286 39 241 16T142 -8Q73 -8 44 35T31 149L87 393Q89 401 84 410T71 419H41L62 512Q85 520 113 526T182 533Q240 533
261 498T269 408L216 177Q211 151 219 136T256 120Q292 120 339 149L426 526H576Q588 526 594 517T597 494L512 126Q510 118 516 110T530 101H558L539 13Q519 3 491 -2T431 -8Z" />
<glyph unicode="&#xfb;" glyph-name="ucircumflex" horiz-adv-x="600" d="M226 598L316 700H444L501 598L492 560H427L367 614L285 560H217L226 598ZM431 -8Q378 -8 352 12T328 80Q286 39 241 16T142 -8Q73 -8 44 35T31 149L87 393Q89 401 84 410T71 419H41L62
512Q85 520 113 526T182 533Q240 533 261 498T269 408L216 177Q211 151 219 136T256 120Q292 120 339 149L426 526H576Q588 526 594 517T597 494L512 126Q510 118 516 110T530 101H558L539 13Q519 3 491 -2T431 -8Z" />
<glyph unicode="&#xfc;" glyph-name="udieresis" horiz-adv-x="600" d="M468 561Q433 561 412 582T390 636Q390 673 415 695T476 718Q512 718 533 697T555 643Q555 605 529 583T468 561ZM270 561Q235 561 214 582T193 636Q193 673 218 695T279 718Q314 718 335
697T357 643Q357 605 331 583T270 561ZM431 -8Q378 -8 352 12T328 80Q286 39 241 16T142 -8Q73 -8 44 35T31 149L87 393Q89 401 84 410T71 419H41L62 512Q85 520 113 526T182 533Q240 533 261 498T269 408L216 177Q211 151 219 136T256 120Q292 120 339 149L426
526H576Q588 526 594 517T597 494L512 126Q510 118 516 110T530 101H558L539 13Q519 3 491 -2T431 -8Z" />
<glyph unicode="&#xfd;" glyph-name="yacute" horiz-adv-x="587" d="M183 -172Q106 -172 57 -163T-23 -142L6 -22H108Q118 -42 138 -54T193 -66Q290 -66 311 24L327 96Q289 63 246 45T151 26Q82 26 52 66T37 174L87 393Q89 401 84 410T71 419H41L62 512Q85 520
113 526T182 533Q240 533 261 498T269 408L221 197Q215 171 223 156T260 140Q298 140 344 168L426 526H576Q588 526 594 517T597 494L488 23Q465 -75 392 -123T183 -172ZM346 700H517L504 647L399 560H297L346 700Z" />
<glyph unicode="&#xfe;" glyph-name="thorn" horiz-adv-x="576" d="M298 11Q252 11 221 21T166 52L139 -68H197L175 -162H-116L-94 -68H-64Q-56 -68 -46 -60T-33 -43L107 569Q109 577 104 586T90 595H60L84 700H286Q299 700 305 690T306 662L259 455Q289 487 331
511T425 536Q488 536 530 492T573 360Q573 285 550 214T481 92Q443 49 396 30T298 11ZM320 408Q303 408 281 400T241 378L183 126Q194 121 210 116T250 111Q286 111 313 129T359 176T386 244T395 323Q395 366 375 387T320 408Z" />
<glyph unicode="&#xff;" glyph-name="ydieresis" horiz-adv-x="587" d="M183 -172Q106 -172 57 -163T-23 -142L6 -22H108Q118 -42 138 -54T193 -66Q290 -66 311 24L327 96Q289 63 246 45T151 26Q82 26 52 66T37 174L87 393Q89 401 84 410T71 419H41L62 512Q85
520 113 526T182 533Q240 533 261 498T269 408L221 197Q215 171 223 156T260 140Q298 140 344 168L426 526H576Q588 526 594 517T597 494L488 23Q465 -75 392 -123T183 -172ZM467 561Q432 561 411 582T389 636Q389 673 414 695T475 718Q511 718 532 697T554 643Q554
605 528 583T467 561ZM269 561Q234 561 213 582T192 636Q192 673 217 695T278 718Q313 718 334 697T356 643Q356 605 330 583T269 561Z" />
<glyph unicode="&#x100;" glyph-name="Amacron" horiz-adv-x="731" d="M-27 101H-10Q4 101 16 109T36 132L287 566Q293 577 292 586T279 595H231L255 700H586L637 126Q639 116 647 109T664 101H685L661 0H340L363 101H449L440 215H223L209 191Q186 147 187 124T224
101H257L234 0H-50L-27 101ZM275 311H434L417 564H415L275 311ZM333 858H608L583 753H309L333 858Z" />
<glyph unicode="&#x101;" glyph-name="amacron" horiz-adv-x="537" d="M129 -6Q66 -6 28 28T-11 129Q-11 174 6 208T53 266T125 301T216 313Q253 313 275 310T315 301L325 346Q332 378 317 396T256 414Q234 414 218 411T190 402T167 389T146 372H66L96 504Q116
510 136 516T181 526T233 532T298 535Q418 535 471 489T503 348L452 126Q450 118 456 110T470 101H495L476 16Q456 5 430 -1T374 -8Q326 -8 304 11T275 60Q216 -6 129 -6ZM208 95Q229 95 244 103T274 126L296 220Q285 223 271 225T242 227Q200 227 179 203T157
146Q157 122 169 109T208 95ZM214 685H489L464 580H190L214 685Z" />
<glyph unicode="&#x102;" glyph-name="Abreve" horiz-adv-x="731" d="M-27 101H-10Q4 101 16 109T36 132L287 566Q293 577 292 586T279 595H231L255 700H586L637 126Q639 116 647 109T664 101H685L661 0H340L363 101H449L440 215H223L209 191Q186 147 187 124T224
101H257L234 0H-50L-27 101ZM275 311H434L417 564H415L275 311ZM456 732Q424 732 401 740T362 761T337 790T324 823L336 873H420Q421 856 431 845T462 834Q502 834 516 873H608L594 811Q586 797 575 783T546 758T507 740T456 732Z" />
<glyph unicode="&#x103;" glyph-name="abreve" horiz-adv-x="537" d="M129 -6Q66 -6 28 28T-11 129Q-11 174 6 208T53 266T125 301T216 313Q253 313 275 310T315 301L325 346Q332 378 317 396T256 414Q234 414 218 411T190 402T167 389T146 372H66L96 504Q116
510 136 516T181 526T233 532T298 535Q418 535 471 489T503 348L452 126Q450 118 456 110T470 101H495L476 16Q456 5 430 -1T374 -8Q326 -8 304 11T275 60Q216 -6 129 -6ZM208 95Q229 95 244 103T274 126L296 220Q285 223 271 225T242 227Q200 227 179 203T157
146Q157 122 169 109T208 95ZM319 559Q287 559 264 567T225 588T200 617T187 650L199 700H283Q284 683 294 672T325 661Q365 661 379 700H471L457 638Q449 624 438 610T409 585T370 567T319 559Z" />
<glyph unicode="&#x104;" glyph-name="Aogonek" horiz-adv-x="731" d="M545 -167Q500 -167 476 -149T451 -98Q451 -79 460 -64T484 -36T518 -15T556 0H340L363 101H449L440 215H223L209 191Q186 147 187 124T224 101H257L234 0H-50L-27 101H-10Q4 101 16 109T36
132L287 566Q293 577 292 586T279 595H231L255 700H586L637 126Q639 116 647 109T664 101H685L661 0H621Q601 -17 589 -30T576 -59Q576 -81 611 -81H631L614 -151Q602 -157 585 -162T545 -167ZM275 311H434L417 564H415L275 311Z" />
<glyph unicode="&#x105;" glyph-name="aogonek" horiz-adv-x="537" d="M208 95Q229 95 244 103T274 126L296 220Q285 223 271 225T242 227Q200 227 179 203T157 146Q157 122 169 109T208 95ZM275 60Q216 -6 129 -6Q66 -6 28 28T-11 129Q-11 174 6 208T53 266T125
301T216 313Q253 313 275 310T315 301L325 346Q332 378 317 396T256 414Q234 414 218 411T190 402T167 389T146 372H66L96 504Q116 510 136 516T181 526T233 532T298 535Q418 535 471 489T503 348L452 126Q450 118 456 110T470 101H495L476 16Q448 -1 426 -20T403
-58Q403 -81 438 -81H458L442 -151Q429 -157 412 -162T372 -167Q327 -167 303 -149T278 -98Q278 -82 285 -68T305 -43T332 -23T364 -7Q321 -5 301 14T275 60Z" />
<glyph unicode="&#x106;" glyph-name="Cacute" horiz-adv-x="621" d="M451 881H622L609 828L504 741H402L451 881ZM326 -9Q179 -9 104 64T29 264Q29 358 60 439T146 580T278 674T443 709Q488 709 511 706T547 700H700L645 463H525V572Q512 577 495 581T457 585Q408
585 366 563T292 500T242 399T223 264Q223 114 344 114Q395 114 428 133T494 186H587L556 50Q510 23 454 7T326 -9Z" />
<glyph unicode="&#x107;" glyph-name="cacute" horiz-adv-x="479" d="M321 700H492L479 647L374 560H272L321 700ZM244 -8Q183 -8 139 6T65 47T21 111T7 195Q7 270 31 332T99 440T203 510T333 535Q394 535 439 526T514 502L484 372H393Q386 393 373 407T325 422Q292
422 266 402T221 348T192 274T182 190Q182 100 258 100Q296 100 315 115T348 151H440L411 27Q380 13 341 3T244 -8Z" />
<glyph unicode="&#x108;" glyph-name="Ccircumflex" horiz-adv-x="621" d="M330 779L420 881H548L605 779L596 741H531L471 795L389 741H321L330 779ZM326 -9Q179 -9 104 64T29 264Q29 358 60 439T146 580T278 674T443 709Q488 709 511 706T547 700H700L645 463H525V572Q512
577 495 581T457 585Q408 585 366 563T292 500T242 399T223 264Q223 114 344 114Q395 114 428 133T494 186H587L556 50Q510 23 454 7T326 -9Z" />
<glyph unicode="&#x109;" glyph-name="ccircumflex" horiz-adv-x="479" d="M200 598L290 700H418L475 598L466 560H401L341 614L259 560H191L200 598ZM244 -8Q183 -8 139 6T65 47T21 111T7 195Q7 270 31 332T99 440T203 510T333 535Q394 535 439 526T514 502L484
372H393Q386 393 373 407T325 422Q292 422 266 402T221 348T192 274T182 190Q182 100 258 100Q296 100 315 115T348 151H440L411 27Q380 13 341 3T244 -8Z" />
<glyph unicode="&#x10a;" glyph-name="Cdotaccent" horiz-adv-x="621" d="M326 -9Q179 -9 104 64T29 264Q29 358 60 439T146 580T278 674T443 709Q488 709 511 706T547 700H700L645 463H525V572Q512 577 495 581T457 585Q408 585 366 563T292 500T242 399T223
264Q223 114 344 114Q395 114 428 133T494 186H587L556 50Q510 23 454 7T326 -9ZM465 744Q427 744 405 766T382 822Q382 862 409 886T474 910Q512 910 534 887T557 831Q557 791 530 768T465 744Z" />
<glyph unicode="&#x10b;" glyph-name="cdotaccent" horiz-adv-x="479" d="M244 -8Q183 -8 139 6T65 47T21 111T7 195Q7 270 31 332T99 440T203 510T333 535Q394 535 439 526T514 502L484 372H393Q386 393 373 407T325 422Q292 422 266 402T221 348T192 274T182
190Q182 100 258 100Q296 100 315 115T348 151H440L411 27Q380 13 341 3T244 -8ZM335 563Q297 563 275 585T252 641Q252 681 279 705T344 729Q382 729 404 706T427 650Q427 610 400 587T335 563Z" />
<glyph unicode="&#x10c;" glyph-name="Ccaron" horiz-adv-x="621" d="M345 843L354 881H419L479 826L561 881H629L620 843L530 741H402L345 843ZM326 -9Q179 -9 104 64T29 264Q29 358 60 439T146 580T278 674T443 709Q488 709 511 706T547 700H700L645 463H525V572Q512
577 495 581T457 585Q408 585 366 563T292 500T242 399T223 264Q223 114 344 114Q395 114 428 133T494 186H587L556 50Q510 23 454 7T326 -9Z" />
<glyph unicode="&#x10d;" glyph-name="ccaron" horiz-adv-x="479" d="M215 662L224 700H289L349 645L431 700H499L490 662L400 560H272L215 662ZM244 -8Q183 -8 139 6T65 47T21 111T7 195Q7 270 31 332T99 440T203 510T333 535Q394 535 439 526T514 502L484 372H393Q386
393 373 407T325 422Q292 422 266 402T221 348T192 274T182 190Q182 100 258 100Q296 100 315 115T348 151H440L411 27Q380 13 341 3T244 -8Z" />
<glyph unicode="&#x10e;" glyph-name="Dcaron" horiz-adv-x="707" d="M283 835L292 873H357L417 818L499 873H567L558 835L468 733H340L283 835ZM-26 101H8Q18 101 29 111T43 131L143 566Q145 575 140 585T125 595H87L112 700H394Q550 700 634 628T719 417Q719
324 690 248T604 116T464 31T274 0H-49L-26 101ZM285 106Q341 106 386 128T462 191T511 292T528 427Q528 511 488 549T375 588H338L228 106H285Z" />
<glyph unicode="&#x10f;" glyph-name="dcaron" horiz-adv-x="597" d="M677 700H810L799 647L727 556H635L677 700ZM159 -9Q90 -9 47 36T4 172Q4 207 10 244T29 318T61 388T104 448Q144 493 192 514T288 535Q336 535 365 523T414 487L440 595H379L404 700H613Q627
700 632 690T633 662L510 126Q508 118 513 110T527 101H554L535 13Q515 3 491 -2T441 -8Q387 -8 361 13T330 71Q301 39 257 15T159 -9ZM251 103Q271 103 293 113T335 140L395 402Q386 407 371 411T333 416Q295 416 267 397T220 346T192 271T182 178Q182 138 200
121T251 103Z" />
<glyph unicode="&#x110;" glyph-name="Dcroat" horiz-adv-x="707" d="M42 398H104L143 566Q145 575 140 585T125 595H87L112 700H394Q550 700 634 628T719 417Q719 324 690 248T604 116T464 31T274 0H-49L-26 101H8Q18 101 29 111T43 131L81 296H19L42 398ZM285
106Q341 106 386 128T462 191T511 292T528 427Q528 511 488 549T375 588H338L295 398H417L394 296H271L228 106H285Z" />
<glyph unicode="&#x111;" glyph-name="dcroat" horiz-adv-x="597" d="M363 639H450L464 700H613Q642 700 634 664L628 639H680L661 556H609L510 126Q508 118 513 110T527 101H554L535 13Q515 3 491 -2T441 -8Q387 -8 361 13T330 71Q301 39 257 15T159 -9Q90 -9
47 36T4 172Q4 207 10 244T29 318T61 388T104 448Q144 493 192 514T288 535Q336 535 365 523T415 487L431 556H344L363 639ZM251 103Q271 103 293 113T335 140L395 402Q386 407 371 411T333 416Q295 416 267 397T220 346T192 271T182 178Q182 138 200 121T251 103Z"
/>
<glyph unicode="&#x112;" glyph-name="Emacron" horiz-adv-x="598" d="M628 493H516L520 587H338L297 409H385L406 470H509L456 241H355L361 303H272L228 109H418L460 221H578L527 0H-49L-26 101H9Q20 101 30 111T43 131L143 566Q145 575 141 585T126 595H87L112
700H676L628 493ZM301 858H576L551 753H277L301 858Z" />
<glyph unicode="&#x113;" glyph-name="emacron" horiz-adv-x="512" d="M248 -8Q185 -8 140 7T66 51T23 117T9 202Q9 274 34 335T101 440T202 510T326 535Q420 535 470 494T521 387Q521 334 497 300T429 244T321 214T180 201Q181 148 200 124T258 100Q299 100 324
116T366 151H458L429 28Q399 14 354 3T248 -8ZM307 431Q284 431 265 420T231 391T206 347T189 292Q274 299 315 318T357 379Q357 402 345 416T307 431ZM214 685H489L464 580H190L214 685Z" />
<glyph unicode="&#x114;" glyph-name="Ebreve" horiz-adv-x="598" d="M628 493H516L520 587H338L297 409H385L406 470H509L456 241H355L361 303H272L228 109H418L460 221H578L527 0H-49L-26 101H9Q20 101 30 111T43 131L143 566Q145 575 141 585T126 595H87L112
700H676L628 493ZM411 740Q379 740 356 748T317 769T292 798T279 831L291 881H375Q376 864 386 853T417 842Q457 842 471 881H563L549 819Q541 805 530 791T501 766T462 748T411 740Z" />
<glyph unicode="&#x115;" glyph-name="ebreve" horiz-adv-x="512" d="M248 -8Q185 -8 140 7T66 51T23 117T9 202Q9 274 34 335T101 440T202 510T326 535Q420 535 470 494T521 387Q521 334 497 300T429 244T321 214T180 201Q181 148 200 124T258 100Q299 100 324
116T366 151H458L429 28Q399 14 354 3T248 -8ZM307 431Q284 431 265 420T231 391T206 347T189 292Q274 299 315 318T357 379Q357 402 345 416T307 431ZM315 559Q283 559 260 567T221 588T196 617T183 650L195 700H279Q280 683 290 672T321 661Q361 661 375 700H467L453
638Q445 624 434 610T405 585T366 567T315 559Z" />
<glyph unicode="&#x116;" glyph-name="Edotaccent" horiz-adv-x="598" d="M628 493H516L520 587H338L297 409H385L406 470H509L456 241H355L361 303H272L228 109H418L460 221H578L527 0H-49L-26 101H9Q20 101 30 111T43 131L143 566Q145 575 141 585T126 595H87L112
700H676L628 493ZM415 736Q377 736 355 758T332 814Q332 854 359 878T424 902Q462 902 484 879T507 823Q507 783 480 760T415 736Z" />
<glyph unicode="&#x117;" glyph-name="edotaccent" horiz-adv-x="512" d="M248 -8Q185 -8 140 7T66 51T23 117T9 202Q9 274 34 335T101 440T202 510T326 535Q420 535 470 494T521 387Q521 334 497 300T429 244T321 214T180 201Q181 148 200 124T258 100Q299 100
324 116T366 151H458L429 28Q399 14 354 3T248 -8ZM307 431Q284 431 265 420T231 391T206 347T189 292Q274 299 315 318T357 379Q357 402 345 416T307 431ZM328 563Q290 563 268 585T245 641Q245 681 272 705T337 729Q375 729 397 706T420 650Q420 610 393 587T328
563Z" />
<glyph unicode="&#x118;" glyph-name="Eogonek" horiz-adv-x="598" d="M-26 101H9Q20 101 30 111T43 131L143 566Q145 575 141 585T126 595H87L112 700H676L627 488H516L520 587H338L298 411H419L430 441L477 425L443 279L392 272L394 301H272L228 109H418L460
225H578L527 0H493Q473 -17 460 -30T447 -59Q447 -81 482 -81H502L486 -151Q473 -157 456 -162T416 -167Q371 -167 347 -149T322 -98Q322 -79 331 -64T355 -36T389 -15T427 0H-49L-26 101Z" />
<glyph unicode="&#x119;" glyph-name="eogonek" horiz-adv-x="512" d="M317 -167Q272 -167 248 -149T223 -98Q223 -63 250 -40T310 -4Q297 -6 282 -7T248 -8Q185 -8 140 7T66 51T23 118T9 206Q9 279 34 339T101 443T202 511T326 535Q420 535 470 494T521 387Q521
334 497 300T429 244T321 214T180 201Q181 148 200 124T258 100Q299 100 324 116T366 151H458L429 28Q415 19 401 9T375 -12T356 -34T349 -58Q349 -81 383 -81H403L387 -151Q374 -157 357 -162T317 -167ZM307 431Q284 431 265 421T231 391T206 347T189 292Q274
299 315 318T357 379Q357 402 345 416T307 431Z" />
<glyph unicode="&#x11a;" glyph-name="Ecaron" horiz-adv-x="598" d="M295 835L304 873H369L429 818L511 873H579L570 835L480 733H352L295 835ZM628 493H516L520 587H338L297 409H385L406 470H509L456 241H355L361 303H272L228 109H418L460 221H578L527 0H-49L-26
101H9Q20 101 30 111T43 131L143 566Q145 575 141 585T126 595H87L112 700H676L628 493Z" />
<glyph unicode="&#x11b;" glyph-name="ecaron" horiz-adv-x="512" d="M208 662L217 700H282L342 645L424 700H492L483 662L393 560H265L208 662ZM248 -8Q185 -8 140 7T66 51T23 117T9 202Q9 274 34 335T101 440T202 510T326 535Q420 535 470 494T521 387Q521 334
497 300T429 244T321 214T180 201Q181 148 200 124T258 100Q299 100 324 116T366 151H458L429 28Q399 14 354 3T248 -8ZM307 431Q284 431 265 420T231 391T206 347T189 292Q274 299 315 318T357 379Q357 402 345 416T307 431Z" />
<glyph unicode="&#x11c;" glyph-name="Gcircumflex" horiz-adv-x="676" d="M332 779L422 881H550L607 779L598 741H533L473 795L391 741H323L332 779ZM302 -9Q170 -9 100 62T29 259Q29 352 60 434T147 577T280 673T449 709Q493 709 518 706T557 700H707L654 470H532V571Q519
577 501 581T458 585Q408 585 366 562T292 495T242 392T223 258Q223 180 250 145T335 110Q361 110 374 112T404 120L431 242H371L395 344H687L663 241H642Q631 241 621 231T608 211L560 0H462Q460 6 457 10Q454 14 450 17T439 21Q410 7 380 -1T302 -9Z" />
<glyph unicode="&#x11d;" glyph-name="gcircumflex" horiz-adv-x="497" d="M198 598L288 700H416L473 598L464 560H399L339 614L257 560H189L198 598ZM169 -178Q46 -178 -9 -147T-65 -64Q-65 -39 -55 -21T-27 10T11 32T56 48Q39 58 28 76T16 118Q16 157 38 184T101
235Q75 252 61 279T47 341Q47 386 65 421T114 482T189 521T281 535Q320 535 355 526H544L520 419H503Q498 419 490 415T479 403Q480 398 480 393T481 382Q481 338 464 304T415 245T342 207T252 194Q224 194 201 197T158 207Q150 201 146 193T141 174Q141 151 178
151H311Q388 151 423 117T459 29Q459 -16 444 -53T394 -119T304 -162T169 -178ZM252 280Q279 280 303 309T327 391Q327 416 313 429T278 443Q251 443 228 414T205 331Q205 307 217 294T252 280ZM103 10Q88 -9 88 -31Q88 -53 106 -66T175 -79Q237 -79 267 -63T297
-21Q297 -7 286 1T246 10H103Z" />
<glyph unicode="&#x11e;" glyph-name="Gbreve" horiz-adv-x="676" d="M302 -9Q170 -9 100 62T29 259Q29 352 60 434T147 577T280 673T449 709Q493 709 518 706T557 700H707L654 470H532V571Q519 577 501 581T458 585Q408 585 366 562T292 495T242 392T223 258Q223
180 250 145T335 110Q361 110 374 112T404 120L431 242H371L395 344H687L663 241H642Q631 241 621 231T608 211L560 0H462Q460 6 457 10Q454 14 450 17T439 21Q410 7 380 -1T302 -9ZM458 740Q426 740 403 748T364 769T339 798T326 831L338 881H422Q423 864 433
853T464 842Q504 842 518 881H610L596 819Q588 805 577 791T548 766T509 748T458 740Z" />
<glyph unicode="&#x11f;" glyph-name="gbreve" horiz-adv-x="497" d="M169 -178Q46 -178 -9 -147T-65 -64Q-65 -39 -55 -21T-27 10T11 32T56 48Q39 58 28 76T16 118Q16 157 38 184T101 235Q75 252 61 279T47 341Q47 386 65 421T114 482T189 521T281 535Q320 535
355 526H544L520 419H503Q498 419 490 415T479 403Q480 398 480 393T481 382Q481 338 464 304T415 245T342 207T252 194Q224 194 201 197T158 207Q150 201 146 193T141 174Q141 151 178 151H311Q388 151 423 117T459 29Q459 -16 444 -53T394 -119T304 -162T169
-178ZM252 280Q279 280 303 309T327 391Q327 416 313 429T278 443Q251 443 228 414T205 331Q205 307 217 294T252 280ZM103 10Q88 -9 88 -31Q88 -53 106 -66T175 -79Q237 -79 267 -63T297 -21Q297 -7 286 1T246 10H103ZM324 559Q292 559 269 567T230 588T205 617T192
650L204 700H288Q289 683 299 672T330 661Q370 661 384 700H476L462 638Q454 624 443 610T414 585T375 567T324 559Z" />
<glyph unicode="&#x120;" glyph-name="Gdotaccent" horiz-adv-x="676" d="M302 -9Q170 -9 100 62T29 259Q29 352 60 434T147 577T280 673T449 709Q493 709 518 706T557 700H707L654 470H532V571Q519 577 501 581T458 585Q408 585 366 562T292 495T242 392T223
258Q223 180 250 145T335 110Q361 110 374 112T404 120L431 242H371L395 344H687L663 241H642Q631 241 621 231T608 211L560 0H462Q460 6 457 10Q454 14 450 17T439 21Q410 7 380 -1T302 -9ZM467 744Q429 744 407 766T384 822Q384 862 411 886T476 910Q514 910
536 887T559 831Q559 791 532 768T467 744Z" />
<glyph unicode="&#x121;" glyph-name="gdotaccent" horiz-adv-x="497" d="M169 -178Q46 -178 -9 -147T-65 -64Q-65 -39 -55 -21T-27 10T11 32T56 48Q39 58 28 76T16 118Q16 157 38 184T101 235Q75 252 61 279T47 341Q47 386 65 421T114 482T189 521T281 535Q320
535 355 526H544L520 419H503Q498 419 490 415T479 403Q480 398 480 393T481 382Q481 338 464 304T415 245T342 207T252 194Q224 194 201 197T158 207Q150 201 146 193T141 174Q141 151 178 151H311Q388 151 423 117T459 29Q459 -16 444 -53T394 -119T304 -162T169
-178ZM252 280Q279 280 303 309T327 391Q327 416 313 429T278 443Q251 443 228 414T205 331Q205 307 217 294T252 280ZM103 10Q88 -9 88 -31Q88 -53 106 -66T175 -79Q237 -79 267 -63T297 -21Q297 -7 286 1T246 10H103ZM333 563Q295 563 273 585T250 641Q250 681
277 705T342 729Q380 729 402 706T425 650Q425 610 398 587T333 563Z" />
<glyph unicode="&#x122;" glyph-name="Gcommaaccent" horiz-adv-x="676" d="M173 -172Q198 -169 214 -163T230 -144Q230 -137 225 -132T212 -121T200 -107T194 -84Q194 -54 215 -37T263 -19Q293 -19 313 -38T333 -90Q333 -157 288 -190T161 -227L173 -172ZM302
-9Q170 -9 100 62T29 259Q29 352 60 434T147 577T280 673T449 709Q493 709 518 706T557 700H707L654 470H532V571Q519 577 501 581T458 585Q408 585 366 562T292 495T242 392T223 258Q223 180 250 145T335 110Q361 110 374 112T404 120L431 242H371L395 344H687L663
241H642Q631 241 621 231T608 211L560 0H462Q460 6 457 10Q454 14 450 17T439 21Q410 7 380 -1T302 -9Z" />
<glyph unicode="&#x123;" glyph-name="gcommaaccent" horiz-adv-x="497" d="M314 563Q284 563 264 582T244 633Q244 701 289 734T416 771L404 715Q379 713 363 707T347 688Q347 681 352 677T365 667T377 652T383 628Q383 597 362 580T314 563ZM169 -178Q46 -178
-9 -147T-65 -64Q-65 -39 -55 -21T-27 10T11 32T56 48Q39 58 28 76T16 118Q16 157 38 184T101 235Q75 252 61 279T47 341Q47 386 65 421T114 482T189 521T281 535Q320 535 355 526H544L520 419H503Q498 419 490 415T479 403Q480 398 480 393T481 382Q481 338 464
304T415 245T342 207T252 194Q224 194 201 197T158 207Q150 201 146 193T141 174Q141 151 178 151H311Q388 151 423 117T459 29Q459 -16 444 -53T394 -119T304 -162T169 -178ZM252 280Q279 280 303 309T327 391Q327 416 313 429T278 443Q251 443 228 414T205 331Q205
307 217 294T252 280ZM103 10Q88 -9 88 -31Q88 -53 106 -66T175 -79Q237 -79 267 -63T297 -21Q297 -7 286 1T246 10H103Z" />
<glyph unicode="&#x124;" glyph-name="Hcircumflex" horiz-adv-x="740" d="M349 771L439 873H567L624 771L615 733H550L490 787L408 733H340L349 771ZM-26 101H9Q20 101 30 111T43 131L143 566Q145 575 141 585T126 595H87L112 700H433L409 595H340L297 407H511L553
595H485L509 700H831L807 595H771Q760 595 750 585T737 566L638 131Q636 122 640 112T654 101H694L671 0H348L371 101H440L487 305H273L227 101H296L273 0H-49L-26 101Z" />
<glyph unicode="&#x125;" glyph-name="hcircumflex" horiz-adv-x="604" d="M260 755L350 857H478L535 755L526 717H461L401 771L319 717H251L260 755ZM436 -8Q370 -8 347 26T339 121L390 345Q396 371 388 384T353 397Q313 397 260 364L177 0H27Q16 0 10 9T6 32L130
569Q132 577 126 586T112 595H83L107 700H309Q337 700 329 662L278 441Q318 478 369 506T477 535Q543 535 568 497T580 397L517 126Q515 118 521 110T535 101H562L543 13Q523 3 496 -2T436 -8Z" />
<glyph unicode="&#x126;" glyph-name="Hbar" horiz-adv-x="741" d="M371 101H440L486 302H272L227 101H296L273 0H-49L-26 101H9Q20 101 30 111T43 131L120 466H54L71 534H135L143 566Q145 575 141 585T126 595H87L112 700H433L409 595H340L326 534H539L553 595H485L509
700H831L807 595H771Q760 595 750 585T737 566L730 534H795L779 466H714L638 131Q636 122 640 112T654 101H694L671 0H348L371 101ZM296 402H509L524 466H310L296 402Z" />
<glyph unicode="&#x127;" glyph-name="hbar" horiz-adv-x="604" d="M93 639H145L159 700H309Q322 700 327 691T329 664L323 639H410L391 556H304L278 441Q318 478 369 506T477 535Q543 535 569 497T580 397L517 126Q515 118 521 110T535 101H562L543 13Q523 3
496 -2T437 -8Q370 -8 347 26T339 121L390 347Q396 373 389 386T354 400Q314 400 261 366L177 0H27Q16 0 10 9T6 32L126 556H74L93 639Z" />
<glyph unicode="&#x12a;" glyph-name="Imacron" horiz-adv-x="349" d="M-26 101H16Q26 101 36 111T49 131L149 566Q151 575 147 585T133 595H87L112 700H440L416 595H373Q362 595 352 585T340 566L240 131Q238 122 242 112T256 101H302L279 0H-49L-26 101ZM174
858H449L424 753H150L174 858Z" />
<glyph unicode="&#x12b;" glyph-name="imacron" horiz-adv-x="299" d="M127 -8Q61 -8 38 26T29 121L92 393Q94 401 89 410T75 419H41L62 512Q85 520 113 526T187 532Q241 532 265 503T276 419L208 126Q206 118 212 110T226 101H256L237 13Q217 3 188 -2T127 -8ZM361
685H636L611 580H337L361 685Z" />
<glyph unicode="&#x12e;" glyph-name="Iogonek" horiz-adv-x="349" d="M-26 101H16Q26 101 36 111T49 131L149 566Q151 575 147 585T133 595H87L112 700H440L416 595H373Q362 595 352 585T340 566L240 131Q238 122 242 112T256 101H302L279 0H232Q212 -17 200
-30T187 -59Q187 -81 222 -81H242L225 -151Q213 -157 196 -162T156 -167Q111 -167 87 -149T62 -98Q62 -79 71 -64T95 -36T129 -15T167 0H-49L-26 101Z" />
<glyph unicode="&#x12f;" glyph-name="iogonek" horiz-adv-x="299" d="M137 -167Q92 -167 68 -149T43 -98Q43 -66 69 -44T129 -7H121Q60 -5 38 28T29 121L92 393Q94 401 89 410T75 419H41L62 512Q85 520 113 526T187 532Q241 532 265 503T276 419L209 126Q207
118 212 110T226 101H256L237 13Q211 -2 190 -20T169 -58Q169 -81 203 -81H223L207 -151Q194 -157 177 -162T137 -167ZM226 561Q188 561 166 583T143 640Q143 679 171 703T237 727Q275 727 298 704T321 649Q321 629 314 613T293 585T263 567T226 561Z" />
<glyph unicode="&#x130;" glyph-name="Idotaccent" horiz-adv-x="349" d="M-26 101H16Q26 101 36 111T49 131L149 566Q151 575 147 585T133 595H87L112 700H440L416 595H373Q362 595 352 585T340 566L240 131Q238 122 242 112T256 101H302L279 0H-49L-26 101ZM290
736Q252 736 230 758T207 814Q207 854 234 878T299 902Q337 902 359 879T382 823Q382 783 355 760T290 736Z" />
<glyph unicode="&#x131;" glyph-name="dotlessi" horiz-adv-x="299" d="M127 -8Q61 -8 38 26T29 121L92 393Q94 401 89 410T75 419H41L62 512Q85 520 113 526T187 532Q241 532 265 503T276 419L208 126Q206 118 212 110T226 101H256L237 13Q217 3 188 -2T127 -8Z" />
<glyph unicode="&#x134;" glyph-name="Jcircumflex" horiz-adv-x="501" d="M311 771L401 873H529L586 771L577 733H512L452 787L370 733H302L311 771ZM144 -8Q82 -8 36 2T-42 28L-13 155H83Q91 137 106 125T148 112Q180 112 196 131T221 186L308 566Q310 575 306
585T292 595H248L273 700H593L568 595H532Q521 595 511 585T499 566L413 193Q401 140 381 103T329 40T252 4T144 -8Z" />
<glyph unicode="&#x135;" glyph-name="jcircumflex" horiz-adv-x="278" d="M-14 -169Q-48 -169 -73 -165T-115 -154L-94 -67H-67Q-35 -67 -21 -53T1 -6L92 393Q94 401 89 410T75 419H41L62 512Q85 520 113 526T187 532Q241 532 265 504T276 419L177 -15Q157 -102
110 -135T-14 -169ZM330 598L420 700H548L605 598L596 560H531L471 614L389 560H321L330 598Z" />
<glyph unicode="&#x136;" glyph-name="Kcommaaccent" horiz-adv-x="702" d="M191 -172Q216 -169 232 -163T248 -144Q248 -137 243 -132T230 -121T218 -107T212 -84Q212 -54 233 -37T281 -19Q311 -19 331 -38T351 -90Q351 -157 306 -190T179 -227L191 -172ZM-26
101H9Q20 101 30 111T43 131L143 566Q145 575 141 585T126 595H87L112 700H424L400 595H340L289 375L480 538Q509 562 504 578T474 595H469L494 700H779L756 595H743Q730 595 722 591T697 573L488 402L607 128Q611 119 616 110T633 101H656L633 0H403L420 90L337
293L256 230L227 101H289L266 0H-49L-26 101Z" />
<glyph unicode="&#x137;" glyph-name="kcommaaccent" horiz-adv-x="554" d="M127 -172Q152 -169 168 -163T184 -144Q184 -137 179 -132T166 -121T154 -107T148 -84Q148 -54 169 -37T217 -19Q247 -19 267 -38T287 -90Q287 -157 242 -190T115 -227L127 -172ZM426
-8Q400 -8 383 -2T354 17T334 46T317 83L270 198Q256 190 242 183T215 169L177 0H27Q15 0 9 9T5 32L129 569Q131 577 126 586T112 595H82L106 700H308Q321 700 327 690T328 662L246 303Q277 325 307 351T361 407T403 466T428 526H585L566 442Q538 404 498 364T411
286L483 126Q488 115 495 108T513 101H532L512 13Q496 4 476 -2T426 -8Z" />
<glyph unicode="&#x139;" glyph-name="Lacute" horiz-adv-x="584" d="M276 873H447L434 820L329 733H227L276 873ZM-26 101H9Q20 101 30 111T43 131L143 566Q145 575 141 585T126 595H87L112 700H452L428 595H340L228 109H401L451 244H570L514 0H-49L-26 101Z" />
<glyph unicode="&#x13a;" glyph-name="lacute" horiz-adv-x="301" d="M236 857H407L394 804L289 717H187L236 857ZM129 -8Q63 -8 40 26T30 121L133 569Q135 577 130 586T116 595H83L107 700H312Q341 700 332 662L209 126Q207 118 212 110T226 101H259L239 13Q219
3 190 -2T129 -8Z" />
<glyph unicode="&#x13b;" glyph-name="Lcommaaccent" horiz-adv-x="584" d="M133 -172Q158 -169 174 -163T190 -144Q190 -137 185 -132T172 -121T160 -107T154 -84Q154 -54 175 -37T223 -19Q253 -19 273 -38T293 -90Q293 -157 248 -190T121 -227L133 -172ZM-26
101H9Q20 101 30 111T43 131L143 566Q145 575 141 585T126 595H87L112 700H452L428 595H340L228 109H401L451 244H570L514 0H-49L-26 101Z" />
<glyph unicode="&#x13c;" glyph-name="lcommaaccent" horiz-adv-x="301" d="M242 -172Q267 -169 283 -163T299 -144Q299 -137 294 -132T281 -121T269 -107T263 -84Q263 -54 284 -37T332 -19Q362 -19 382 -38T402 -90Q402 -157 357 -190T230 -227L242 -172ZM129
-8Q63 -8 40 26T30 121L133 569Q135 577 130 586T116 595H83L107 700H312Q341 700 332 662L209 126Q207 118 212 110T226 101H259L239 13Q219 3 190 -2T129 -8Z" />
<glyph unicode="&#x13d;" glyph-name="Lcaron" horiz-adv-x="584" d="M497 700H632L620 647L549 554H457L497 700ZM-26 101H9Q20 101 30 111T43 131L143 566Q145 575 141 585T126 595H87L112 700H452L428 595H340L228 109H401L451 244H570L514 0H-49L-26 101Z" />
<glyph unicode="&#x13e;" glyph-name="lcaron" horiz-adv-x="301" d="M376 700H510L498 647L427 556H334L376 700ZM129 -8Q63 -8 40 26T30 121L133 569Q135 577 130 586T116 595H83L107 700H312Q341 700 332 662L209 126Q207 118 212 110T226 101H259L239 13Q219
3 190 -2T129 -8Z" />
<glyph unicode="&#x141;" glyph-name="Lslash" horiz-adv-x="584" d="M24 324L92 345L143 566Q145 575 141 585T126 595H87L112 700H452L428 595H340L297 411L478 469L452 362L273 305L228 109H401L451 244H570L514 0H-49L-26 101H9Q20 101 30 111T43 131L68 238L0
217L24 324Z" />
<glyph unicode="&#x142;" glyph-name="lslash" horiz-adv-x="303" d="M30 350L89 380L133 569Q135 577 130 586T116 595H83L107 700H312Q341 700 332 662L291 482L350 512L326 408L266 378L209 126Q207 118 212 110T226 101H260L241 13Q220 3 191 -2T129 -8Q63
-8 40 26T30 121L66 277L7 247L30 350Z" />
<glyph unicode="&#x143;" glyph-name="Nacute" horiz-adv-x="714" d="M457 873H628L615 820L510 733H408L457 873ZM-26 101H9Q20 101 30 111T43 131L143 566Q145 575 141 585T126 595H87L112 700H361L507 275H510L585 595H514L539 700H807L783 595H749Q739 595
729 585T716 566L587 0H426L260 465H257L174 101H247L224 0H-49L-26 101Z" />
<glyph unicode="&#x144;" glyph-name="nacute" horiz-adv-x="604" d="M348 700H519L506 647L401 560H299L348 700ZM436 -8Q370 -8 347 26T339 121L390 345Q396 371 388 384T353 397Q332 397 309 389T261 364L177 0H27Q16 0 10 9T6 32L89 393Q91 401 86 410T72
419H41L62 512Q85 520 111 526T184 532Q229 532 253 509T275 438Q295 457 318 474T367 505T420 527T477 535Q543 535 568 497T580 397L517 126Q515 118 521 110T535 101H562L543 13Q523 3 496 -2T436 -8Z" />
<glyph unicode="&#x145;" glyph-name="Ncommaaccent" horiz-adv-x="714" d="M204 -172Q229 -169 245 -163T261 -144Q261 -137 256 -132T243 -121T231 -107T225 -84Q225 -54 246 -37T294 -19Q324 -19 344 -38T364 -90Q364 -157 319 -190T192 -227L204 -172ZM-26
101H9Q20 101 30 111T43 131L143 566Q145 575 141 585T126 595H87L112 700H361L507 275H510L585 595H514L539 700H807L783 595H749Q739 595 729 585T716 566L587 0H426L260 465H257L174 101H247L224 0H-49L-26 101Z" />
<glyph unicode="&#x146;" glyph-name="ncommaaccent" horiz-adv-x="604" d="M144 -172Q169 -169 185 -163T201 -144Q201 -137 196 -132T183 -121T171 -107T165 -84Q165 -54 186 -37T234 -19Q264 -19 284 -38T304 -90Q304 -157 259 -190T132 -227L144 -172ZM436
-8Q370 -8 347 26T339 121L390 345Q396 371 388 384T353 397Q332 397 309 389T261 364L177 0H27Q16 0 10 9T6 32L89 393Q91 401 86 410T72 419H41L62 512Q85 520 111 526T184 532Q229 532 253 509T275 438Q295 457 318 474T367 505T420 527T477 535Q543 535 568
497T580 397L517 126Q515 118 521 110T535 101H562L543 13Q523 3 496 -2T436 -8Z" />
<glyph unicode="&#x147;" glyph-name="Ncaron" horiz-adv-x="714" d="M351 835L360 873H425L485 818L567 873H635L626 835L536 733H408L351 835ZM-26 101H9Q20 101 30 111T43 131L143 566Q145 575 141 585T126 595H87L112 700H361L507 275H510L585 595H514L539
700H807L783 595H749Q739 595 729 585T716 566L587 0H426L260 465H257L174 101H247L224 0H-49L-26 101Z" />
<glyph unicode="&#x148;" glyph-name="ncaron" horiz-adv-x="604" d="M235 662L244 700H309L369 645L451 700H519L510 662L420 560H292L235 662ZM436 -8Q370 -8 347 26T339 121L390 345Q396 371 388 384T353 397Q332 397 309 389T261 364L177 0H27Q16 0 10 9T6
32L89 393Q91 401 86 410T72 419H41L62 512Q85 520 111 526T184 532Q229 532 253 509T275 438Q295 457 318 474T367 505T420 527T477 535Q543 535 568 497T580 397L517 126Q515 118 521 110T535 101H562L543 13Q523 3 496 -2T436 -8Z" />
<glyph unicode="&#x14c;" glyph-name="Omacron" horiz-adv-x="715" d="M346 882H621L596 777H322L346 882ZM334 -9Q263 -9 207 10T111 66T50 156T28 277Q28 370 59 448T144 585T270 675T426 708Q494 708 549 689T644 632T704 542T726 423Q726 326 696 247T613
110T488 22T334 -9ZM341 111Q386 111 422 137T484 207T522 308T536 425Q536 502 505 542T414 582Q369 582 333 557T271 488T233 388T219 268Q219 192 250 152T341 111Z" />
<glyph unicode="&#x14d;" glyph-name="omacron" horiz-adv-x="560" d="M218 685H493L468 580H194L218 685ZM253 -7Q135 -7 72 54T8 220Q8 289 31 347T95 446T191 511T309 535Q427 535 490 474T553 308Q553 239 531 181T468 82T373 17T253 -7ZM257 101Q285 101
308 120T346 170T370 241T379 323Q379 371 360 395T305 419Q277 419 254 400T215 349T191 278T182 197Q182 101 257 101Z" />
<glyph unicode="&#x150;" glyph-name="Ohungarumlaut" horiz-adv-x="715" d="M529 879H671L659 828L577 739H485L529 879ZM352 879H494L481 828L399 739H308L352 879ZM334 -9Q263 -9 207 10T111 66T50 156T28 277Q28 370 59 448T144 585T270 675T426 708Q494 708
549 689T644 632T704 542T726 423Q726 326 696 247T613 110T488 22T334 -9ZM341 111Q386 111 422 137T484 207T522 308T536 425Q536 502 505 542T414 582Q369 582 333 557T271 488T233 388T219 268Q219 192 250 152T341 111Z" />
<glyph unicode="&#x151;" glyph-name="ohungarumlaut" horiz-adv-x="560" d="M406 700H548L536 649L454 560H362L406 700ZM229 700H371L358 649L276 560H185L229 700ZM253 -7Q135 -7 72 54T8 220Q8 289 31 347T95 446T191 511T309 535Q427 535 490 474T553 308Q553
239 531 181T468 82T373 17T253 -7ZM257 101Q285 101 308 120T346 170T370 241T379 323Q379 371 360 395T305 419Q277 419 254 400T215 349T191 278T182 197Q182 101 257 101Z" />
<glyph unicode="&#x152;" glyph-name="OE" horiz-adv-x="961" d="M992 493H880L883 587H705L664 409H748L770 470H873L820 241H718L724 303H639L595 109H782L823 221H941L891 0H355Q199 0 114 72T29 279Q29 373 59 451T146 584T287 669T475 700H1040L992 493ZM463
588Q407 588 362 566T286 501T238 400T221 266Q221 183 261 146T373 109H405L515 588H463Z" />
<glyph unicode="&#x153;" glyph-name="oe" horiz-adv-x="870" d="M608 -8Q540 -8 497 10T429 62Q358 -7 251 -7Q133 -7 71 54T8 220Q8 289 31 347T94 446T189 511T307 535Q370 535 412 514T480 454Q518 493 569 514T684 535Q778 535 828 494T879 387Q879 334 855
300T787 244T679 214T538 201Q539 148 557 124T621 100Q658 100 683 115T723 149H815L787 28Q755 14 710 3T608 -8ZM255 101Q285 101 307 120T345 170T367 241T375 323Q375 419 303 419Q274 419 252 400T214 349T190 278T182 197Q182 101 255 101ZM665 431Q642
431 623 421T589 391T564 347T547 292Q632 299 674 318T716 379Q716 402 704 416T665 431Z" />
<glyph unicode="&#x154;" glyph-name="Racute" horiz-adv-x="681" d="M387 873H558L545 820L440 733H338L387 873ZM-26 101H9Q20 101 30 111T43 131L143 566Q145 575 141 585T126 595H87L112 700H419Q545 700 608 655T672 530Q672 448 622 400T479 336V332Q504
326 521 317T551 292T571 251T584 186L592 126Q594 112 599 107T611 101H635L612 0H408L398 190Q396 218 393 236T380 266T356 281T316 286H269L227 101H303L280 0H-49L-26 101ZM289 383H348Q385 383 410 393T451 420T472 462T479 514Q479 547 459 567T388 588H336L289
383Z" />
<glyph unicode="&#x155;" glyph-name="racute" horiz-adv-x="405" d="M267 700H438L425 647L320 560H218L267 700ZM27 0Q16 0 10 9T6 32L89 393Q91 401 86 410T72 419H41L62 512Q85 520 111 526T184 532Q228 532 251 508T272 435Q300 478 337 504T423 531Q439
531 454 526L422 388H401Q350 388 314 373T255 340L177 0H27Z" />
<glyph unicode="&#x156;" glyph-name="Rcommaaccent" horiz-adv-x="681" d="M196 -172Q221 -169 237 -163T253 -144Q253 -137 248 -132T235 -121T223 -107T217 -84Q217 -54 238 -37T286 -19Q316 -19 336 -38T356 -90Q356 -157 311 -190T184 -227L196 -172ZM-26
101H9Q20 101 30 111T43 131L143 566Q145 575 141 585T126 595H87L112 700H419Q545 700 608 655T672 530Q672 448 622 400T479 336V332Q504 326 521 317T551 292T571 251T584 186L592 126Q594 112 599 107T611 101H635L612 0H408L398 190Q396 218 393 236T380 266T356
281T316 286H269L227 101H303L280 0H-49L-26 101ZM289 383H348Q385 383 410 393T451 420T472 462T479 514Q479 547 459 567T388 588H336L289 383Z" />
<glyph unicode="&#x157;" glyph-name="rcommaaccent" horiz-adv-x="405" d="M223 -172Q248 -169 264 -163T280 -144Q280 -137 275 -132T262 -121T250 -107T244 -84Q244 -54 265 -37T313 -19Q343 -19 363 -38T383 -90Q383 -157 338 -190T211 -227L223 -172ZM27
0Q16 0 10 9T6 32L89 393Q91 401 86 410T72 419H41L62 512Q85 520 111 526T184 532Q228 532 251 508T272 435Q300 478 337 504T423 531Q439 531 454 526L422 388H401Q350 388 314 373T255 340L177 0H27Z" />
<glyph unicode="&#x158;" glyph-name="Rcaron" horiz-adv-x="681" d="M281 835L290 873H355L415 818L497 873H565L556 835L466 733H338L281 835ZM-26 101H9Q20 101 30 111T43 131L143 566Q145 575 141 585T126 595H87L112 700H419Q545 700 608 655T672 530Q672
448 622 400T479 336V332Q504 326 521 317T551 292T571 251T584 186L592 126Q594 112 599 107T611 101H635L612 0H408L398 190Q396 218 393 236T380 266T356 281T316 286H269L227 101H303L280 0H-49L-26 101ZM289 383H348Q385 383 410 393T451 420T472 462T479
514Q479 547 459 567T388 588H336L289 383Z" />
<glyph unicode="&#x159;" glyph-name="rcaron" horiz-adv-x="405" d="M161 662L170 700H235L295 645L377 700H445L436 662L346 560H218L161 662ZM27 0Q16 0 10 9T6 32L89 393Q91 401 86 410T72 419H41L62 512Q85 520 111 526T184 532Q228 532 251 508T272 435Q300
478 337 504T423 531Q439 531 454 526L422 388H401Q350 388 314 373T255 340L177 0H27Z" />
<glyph unicode="&#x15a;" glyph-name="Sacute" horiz-adv-x="532" d="M365 881H536L523 828L418 741H316L365 881ZM223 -9Q199 -9 181 -8T150 -6T125 -4T103 0H-40L8 214H133L129 116Q136 113 142 111T158 108T180 105T213 104Q264 104 296 123T329 189Q329 209
321 222T297 246T261 267T212 290Q183 303 158 318T115 355T85 406T74 478Q74 530 91 572T143 645T228 692T345 709Q391 709 419 706T467 700H588L542 504H422V590Q410 595 393 598T348 601Q295 601 268 580T240 519Q240 502 246 490T263 469T289 452T325 435Q364
417 397 400T455 361T493 306T507 228Q507 177 490 134T437 59T348 9T223 -9Z" />
<glyph unicode="&#x15b;" glyph-name="sacute" horiz-adv-x="435" d="M276 700H447L434 647L329 560H227L276 700ZM169 -7Q125 -7 93 -3T36 7T-5 20T-34 35L-7 151H80Q90 126 107 111T163 96Q193 96 215 108T237 148Q237 160 231 168T213 183T187 194T155 205Q130
214 109 225T73 254T49 294T40 347Q40 394 57 429T104 487T176 521T268 533Q304 533 332 530T382 522T421 511T455 497L428 379H342Q332 404 314 417T262 431Q226 431 210 418T193 382Q193 360 213 349T269 325Q296 316 320 304T362 276T391 236T402 179Q402 88
340 41T169 -7Z" />
<glyph unicode="&#x15c;" glyph-name="Scircumflex" horiz-adv-x="532" d="M242 779L332 881H460L517 779L508 741H443L383 795L301 741H233L242 779ZM223 -9Q199 -9 181 -8T150 -6T125 -4T103 0H-40L8 214H133L129 116Q136 113 142 111T158 108T180 105T213 104Q264
104 296 123T329 189Q329 209 321 222T297 246T261 267T212 290Q183 303 158 318T115 355T85 406T74 478Q74 530 91 572T143 645T228 692T345 709Q391 709 419 706T467 700H588L542 504H422V590Q410 595 393 598T348 601Q295 601 268 580T240 519Q240 502 246 490T263
469T289 452T325 435Q364 417 397 400T455 361T493 306T507 228Q507 177 490 134T437 59T348 9T223 -9Z" />
<glyph unicode="&#x15d;" glyph-name="scircumflex" horiz-adv-x="435" d="M155 598L245 700H373L430 598L421 560H356L296 614L214 560H146L155 598ZM169 -7Q125 -7 93 -3T36 7T-5 20T-34 35L-7 151H80Q90 126 107 111T163 96Q193 96 215 108T237 148Q237 160
231 168T213 183T187 194T155 205Q130 214 109 225T73 254T49 294T40 347Q40 394 57 429T104 487T176 521T268 533Q304 533 332 530T382 522T421 511T455 497L428 379H342Q332 404 314 417T262 431Q226 431 210 418T193 382Q193 360 213 349T269 325Q296 316 320
304T362 276T391 236T402 179Q402 88 340 41T169 -7Z" />
<glyph unicode="&#x15e;" glyph-name="Scedilla" horiz-adv-x="532" d="M180 -175Q148 -175 127 -170T93 -157L106 -97H147Q149 -102 156 -106T175 -111Q203 -111 203 -91Q203 -83 196 -78T174 -72H153L168 -7Q146 -6 132 -4T103 0H-40L8 214H133L129 116Q136
113 142 111T158 108T180 105T213 104Q264 104 296 124T329 192Q329 212 322 225T300 249T264 270T216 293Q187 306 162 321T117 357T86 407T74 478Q74 530 91 572T143 645T228 692T345 709Q391 709 419 706T467 700H588L542 504H422V590Q410 595 393 598T348 601Q295
601 268 580T240 517Q240 500 245 488T261 467T286 450T321 433Q360 416 394 399T453 360T492 306T507 228Q507 177 490 135T440 61T355 11T236 -9L233 -25Q268 -27 284 -44T301 -89Q301 -130 269 -152T180 -175Z" />
<glyph unicode="&#x15f;" glyph-name="scedilla" horiz-adv-x="435" d="M121 -175Q89 -175 68 -170T34 -157L48 -97H88Q90 -102 97 -106T116 -111Q144 -111 144 -91Q144 -83 137 -78T115 -72H95L110 -4Q52 1 19 12T-34 35L-7 151H80Q90 126 107 111T163 96Q193
96 215 109T237 150Q237 175 215 185T157 207Q132 215 111 226T74 254T49 292T40 345Q40 392 57 427T104 486T176 521T268 533Q304 533 332 530T382 522T421 511T455 497L428 379H342Q332 404 314 417T262 431Q226 431 210 417T193 380Q193 358 212 347T266 322Q293
313 317 303T361 277T391 238T402 182Q402 93 342 44T178 -7L174 -25Q209 -27 226 -44T243 -89Q243 -130 210 -152T121 -175Z" />
<glyph unicode="&#x160;" glyph-name="Scaron" horiz-adv-x="532" d="M253 843L262 881H327L387 826L469 881H537L528 843L438 741H310L253 843ZM223 -9Q199 -9 181 -8T150 -6T125 -4T103 0H-40L8 214H133L129 116Q136 113 142 111T158 108T180 105T213 104Q264
104 296 123T329 189Q329 209 321 222T297 246T261 267T212 290Q183 303 158 318T115 355T85 406T74 478Q74 530 91 572T143 645T228 692T345 709Q391 709 419 706T467 700H588L542 504H422V590Q410 595 393 598T348 601Q295 601 268 580T240 519Q240 502 246 490T263
469T289 452T325 435Q364 417 397 400T455 361T493 306T507 228Q507 177 490 134T437 59T348 9T223 -9Z" />
<glyph unicode="&#x161;" glyph-name="scaron" horiz-adv-x="435" d="M170 662L179 700H244L304 645L386 700H454L445 662L355 560H227L170 662ZM169 -7Q125 -7 93 -3T36 7T-5 20T-34 35L-7 151H80Q90 126 107 111T163 96Q193 96 215 108T237 148Q237 160 231
168T213 183T187 194T155 205Q130 214 109 225T73 254T49 294T40 347Q40 394 57 429T104 487T176 521T268 533Q304 533 332 530T382 522T421 511T455 497L428 379H342Q332 404 314 417T262 431Q226 431 210 418T193 382Q193 360 213 349T269 325Q296 316 320 304T362
276T391 236T402 179Q402 88 340 41T169 -7Z" />
<glyph unicode="&#x162;" glyph-name="Tcommaaccent" horiz-adv-x="646" d="M144 -172Q169 -169 185 -163T201 -144Q201 -137 196 -132T183 -121T171 -107T165 -84Q165 -54 186 -37T234 -19Q264 -19 284 -38T304 -90Q304 -157 259 -190T132 -227L144 -172ZM124
101H165Q175 101 185 111T198 131L303 591H219L172 452H58L115 700H734L677 452H563L579 591H494L389 131Q387 122 391 112T405 101H449L427 0H101L124 101Z" />
<glyph unicode="&#x163;" glyph-name="tcommaaccent" horiz-adv-x="337" d="M262 -172Q287 -169 303 -163T319 -144Q319 -137 314 -132T301 -121T289 -107T283 -84Q283 -54 304 -37T352 -19Q382 -19 402 -38T422 -90Q422 -157 377 -190T250 -227L262 -172ZM65
526H119L151 665H329L297 526H384L360 419H272L216 171Q208 137 219 119T269 101H292L270 5Q252 -1 231 -5T180 -9Q89 -9 53 36T37 167L95 419H41L65 526Z" />
<glyph unicode="&#x164;" glyph-name="Tcaron" horiz-adv-x="646" d="M298 835L307 873H372L432 818L514 873H582L573 835L483 733H355L298 835ZM124 101H165Q175 101 185 111T198 131L303 591H219L172 452H58L115 700H734L677 452H563L579 591H494L389 131Q387
122 391 112T405 101H449L427 0H101L124 101Z" />
<glyph unicode="&#x165;" glyph-name="tcaron" horiz-adv-x="337" d="M372 700H506L494 647L423 556H331L372 700ZM65 526H119L151 665H329L297 526H384L360 419H272L216 171Q208 137 219 119T269 101H292L270 5Q252 -1 231 -5T180 -9Q89 -9 53 36T37 167L95 419H41L65
526Z" />
<glyph unicode="&#x16a;" glyph-name="Umacron" horiz-adv-x="714" d="M337 -8Q256 -8 199 11T110 67T69 154T75 270L142 566Q144 575 140 585T126 595H88L112 700H438L414 595H340L260 248Q251 209 254 183T271 141T306 119T356 112Q389 112 412 119T453 143T481
186T501 250L580 595H505L530 700H806L782 595H748Q737 595 727 585T714 566L639 240Q625 179 601 133T541 56T455 8T337 -8ZM371 858H646L621 753H347L371 858Z" />
<glyph unicode="&#x16b;" glyph-name="umacron" horiz-adv-x="600" d="M431 -8Q378 -8 352 12T328 80Q286 39 241 16T142 -8Q73 -8 44 35T31 149L87 393Q89 401 84 410T71 419H41L62 512Q85 520 113 526T182 533Q240 533 261 498T269 408L216 177Q211 151 219
136T256 120Q292 120 339 149L426 526H576Q588 526 594 517T597 494L512 126Q510 118 516 110T530 101H558L539 13Q519 3 491 -2T431 -8ZM247 685H522L497 580H223L247 685Z" />
<glyph unicode="&#x16c;" glyph-name="Ubreve" horiz-adv-x="714" d="M337 -8Q256 -8 199 11T110 67T69 154T75 270L142 566Q144 575 140 585T126 595H88L112 700H438L414 595H340L260 248Q251 209 254 183T271 141T306 119T356 112Q389 112 412 119T453 143T481
186T501 250L580 595H505L530 700H806L782 595H748Q737 595 727 585T714 566L639 240Q625 179 601 133T541 56T455 8T337 -8ZM476 732Q444 732 421 740T382 761T357 790T344 823L356 873H440Q441 856 451 845T482 834Q522 834 536 873H628L614 811Q606 797 595
783T566 758T527 740T476 732Z" />
<glyph unicode="&#x16d;" glyph-name="ubreve" horiz-adv-x="600" d="M431 -8Q378 -8 352 12T328 80Q286 39 241 16T142 -8Q73 -8 44 35T31 149L87 393Q89 401 84 410T71 419H41L62 512Q85 520 113 526T182 533Q240 533 261 498T269 408L216 177Q211 151 219 136T256
120Q292 120 339 149L426 526H576Q588 526 594 517T597 494L512 126Q510 118 516 110T530 101H558L539 13Q519 3 491 -2T431 -8ZM352 559Q320 559 297 567T258 588T233 617T220 650L232 700H316Q317 683 327 672T358 661Q398 661 412 700H504L490 638Q482 624 471
610T442 585T403 567T352 559Z" />
<glyph unicode="&#x16e;" glyph-name="Uring" horiz-adv-x="714" d="M486 722Q442 722 413 748T383 818Q383 844 392 864T417 898T453 919T495 926Q538 926 567 900T596 830Q596 804 587 784T563 750T527 729T486 722ZM487 772Q509 772 524 786T540 827Q540 849
528 863T492 877Q469 877 455 862T440 819Q440 798 452 785T487 772ZM337 -8Q256 -8 199 11T110 67T69 154T75 270L142 566Q144 575 140 585T126 595H88L112 700H438L414 595H340L260 248Q251 209 254 183T271 141T306 119T356 112Q389 112 412 119T453 143T481
186T501 250L580 595H505L530 700H806L782 595H748Q737 595 727 585T714 566L639 240Q625 179 601 133T541 56T455 8T337 -8Z" />
<glyph unicode="&#x16f;" glyph-name="uring" horiz-adv-x="600" d="M360 562Q316 562 287 588T257 658Q257 684 266 704T291 738T327 759T369 766Q412 766 441 740T470 670Q470 644 461 624T437 590T401 569T360 562ZM361 612Q383 612 398 626T414 667Q414 689
402 703T366 717Q343 717 329 702T314 659Q314 638 326 625T361 612ZM431 -8Q378 -8 352 12T328 80Q286 39 241 16T142 -8Q73 -8 44 35T31 149L87 393Q89 401 84 410T71 419H41L62 512Q85 520 113 526T182 533Q240 533 261 498T269 408L216 177Q211 151 219 136T256
120Q292 120 339 149L426 526H576Q588 526 594 517T597 494L512 126Q510 118 516 110T530 101H558L539 13Q519 3 491 -2T431 -8Z" />
<glyph unicode="&#x170;" glyph-name="Uhungarumlaut" horiz-adv-x="714" d="M337 -8Q256 -8 199 11T110 67T69 154T75 270L142 566Q144 575 140 585T126 595H88L112 700H438L414 595H340L260 248Q251 209 254 183T271 141T306 119T356 112Q389 112 412 119T453
143T481 186T501 250L580 595H505L530 700H806L782 595H748Q737 595 727 585T714 566L639 240Q625 179 601 133T541 56T455 8T337 -8ZM559 873H701L689 822L607 733H515L559 873ZM382 873H524L511 822L429 733H338L382 873Z" />
<glyph unicode="&#x171;" glyph-name="uhungarumlaut" horiz-adv-x="600" d="M431 -8Q378 -8 352 12T328 80Q286 39 241 16T142 -8Q73 -8 44 35T31 149L87 393Q89 401 84 410T71 419H41L62 512Q85 520 113 526T182 533Q240 533 261 498T269 408L216 177Q211 151
219 136T256 120Q292 120 339 149L426 526H576Q588 526 594 517T597 494L512 126Q510 118 516 110T530 101H558L539 13Q519 3 491 -2T431 -8ZM435 700H577L565 649L483 560H391L435 700ZM258 700H400L387 649L305 560H214L258 700Z" />
<glyph unicode="&#x172;" glyph-name="Uogonek" horiz-adv-x="714" d="M341 -167Q296 -167 272 -149T247 -98Q247 -66 271 -44T328 -8Q249 -7 194 13T108 69T68 156T75 270L142 566Q144 575 140 585T125 595H87L111 700H438L413 595H339L260 248Q251 209 254 183T270
141T305 119T356 112Q388 112 411 120T452 144T480 187T500 250L579 595H505L529 700H805L781 595H747Q737 595 727 585T714 566L638 240Q626 188 609 150T567 83T508 34T429 0Q406 -8 389 -24T372 -59Q372 -81 407 -81H426L410 -151Q398 -157 381 -162T341 -167Z"
/>
<glyph unicode="&#x173;" glyph-name="uogonek" horiz-adv-x="600" d="M441 -167Q396 -167 371 -149T346 -98Q346 -66 372 -44T431 -8H426Q376 -6 351 14T328 80Q286 39 241 16T142 -8Q73 -8 44 35T31 149L87 393Q89 401 84 410T71 419H41L62 512Q85 520 113 526T182
533Q240 533 261 498T269 408L216 177Q211 151 219 136T256 120Q292 120 339 149L426 526H576Q588 526 594 517T597 494L512 126Q510 118 516 110T530 101H558L539 16Q514 1 493 -19T472 -58Q472 -81 507 -81H527L510 -151Q498 -157 481 -162T441 -167Z" />
<glyph unicode="&#x178;" glyph-name="Ydieresis" horiz-adv-x="669" d="M141 101H182Q193 101 203 111T216 131L251 286L133 573Q125 595 109 595H87L112 700H414L390 595H319L395 394H398L499 529Q523 561 517 578T479 595H459L483 700H761L737 595H722Q711
595 699 587T677 568L439 276L407 131Q405 122 408 112T423 101H467L444 0H118L141 101ZM564 734Q529 734 508 755T486 809Q486 846 511 868T572 891Q608 891 629 870T651 816Q651 778 625 756T564 734ZM366 734Q331 734 310 755T289 809Q289 846 314 868T375 891Q410
891 431 870T453 816Q453 778 427 756T366 734Z" />
<glyph unicode="&#x179;" glyph-name="Zacute" horiz-adv-x="563" d="M380 873H551L538 820L433 733H331L380 873ZM-21 125L407 583V587H231L192 490H79L128 700H646L616 572L188 113V109H381L424 221H542L491 0H-50L-21 125Z" />
<glyph unicode="&#x17a;" glyph-name="zacute" horiz-adv-x="487" d="M306 700H477L464 647L359 560H257L306 700ZM-21 112L307 417H175L140 340H42L85 526H536L510 411L179 106H318L350 183H452L410 0H-47L-21 112Z" />
<glyph unicode="&#x17b;" glyph-name="Zdotaccent" horiz-adv-x="563" d="M-21 125L407 583V587H231L192 490H79L128 700H646L616 572L188 113V109H381L424 221H542L491 0H-50L-21 125ZM392 736Q354 736 332 758T309 814Q309 854 336 878T401 902Q439 902 461
879T484 823Q484 783 457 760T392 736Z" />
<glyph unicode="&#x17c;" glyph-name="zdotaccent" horiz-adv-x="487" d="M-21 112L307 417H175L140 340H42L85 526H536L510 411L179 106H318L350 183H452L410 0H-47L-21 112ZM320 563Q282 563 260 585T237 641Q237 681 264 705T329 729Q367 729 389 706T412 650Q412
610 385 587T320 563Z" />
<glyph unicode="&#x17d;" glyph-name="Zcaron" horiz-adv-x="563" d="M266 835L275 873H340L400 818L482 873H550L541 835L451 733H323L266 835ZM-21 125L407 583V587H231L192 490H79L128 700H646L616 572L188 113V109H381L424 221H542L491 0H-50L-21 125Z" />
<glyph unicode="&#x17e;" glyph-name="zcaron" horiz-adv-x="487" d="M200 662L209 700H274L334 645L416 700H484L475 662L385 560H257L200 662ZM-21 112L307 417H175L140 340H42L85 526H536L510 411L179 106H318L350 183H452L410 0H-47L-21 112Z" />
<glyph unicode="&#x192;" glyph-name="florin" horiz-adv-x="372" d="M64 440H124L152 561Q170 641 225 676T367 712Q397 712 419 707T456 697L433 601H408Q378 601 360 590T335 549L308 440H395L371 337H284L218 63Q204 0 163 -40T57 -100H-42L-21 -6Q2 2 16
18T39 70L100 337H40L64 440Z" />
<glyph unicode="&#x218;" glyph-name="Scommaaccent" horiz-adv-x="532" d="M102 -172Q127 -169 143 -163T159 -144Q159 -137 154 -132T141 -121T129 -107T123 -84Q123 -54 144 -37T192 -19Q222 -19 242 -38T262 -90Q262 -157 217 -190T90 -227L102 -172ZM223
-9Q199 -9 181 -8T150 -6T125 -4T103 0H-40L8 214H133L129 116Q136 113 142 111T158 108T180 105T213 104Q264 104 296 123T329 189Q329 209 321 222T297 246T261 267T212 290Q183 303 158 318T115 355T85 406T74 478Q74 530 91 572T143 645T228 692T345 709Q391
709 419 706T467 700H588L542 504H422V590Q410 595 393 598T348 601Q295 601 268 580T240 519Q240 502 246 490T263 469T289 452T325 435Q364 417 397 400T455 361T493 306T507 228Q507 177 490 134T437 59T348 9T223 -9Z" />
<glyph unicode="&#x219;" glyph-name="scommaaccent" horiz-adv-x="435" d="M289 -172Q314 -169 330 -163T346 -144Q346 -137 341 -132T328 -121T316 -107T310 -84Q310 -54 331 -37T379 -19Q409 -19 429 -38T449 -90Q449 -157 404 -190T277 -227L289 -172ZM169
-7Q125 -7 93 -3T36 7T-5 20T-34 35L-7 151H80Q90 126 107 111T163 96Q193 96 215 108T237 148Q237 160 231 168T213 183T187 194T155 205Q130 214 109 225T73 254T49 294T40 347Q40 394 57 429T104 487T176 521T268 533Q304 533 332 530T382 522T421 511T455 497L428
379H342Q332 404 314 417T262 431Q226 431 210 418T193 382Q193 360 213 349T269 325Q296 316 320 304T362 276T391 236T402 179Q402 88 340 41T169 -7Z" />
<glyph unicode="&#x21a;" glyph-name="uni021A" horiz-adv-x="646" d="M144 -172Q169 -169 185 -163T201 -144Q201 -137 196 -132T183 -121T171 -107T165 -84Q165 -54 186 -37T234 -19Q264 -19 284 -38T304 -90Q304 -157 259 -190T132 -227L144 -172ZM124 101H165Q175
101 185 111T198 131L303 591H219L172 452H58L115 700H734L677 452H563L579 591H494L389 131Q387 122 391 112T405 101H449L427 0H101L124 101Z" />
<glyph unicode="&#x21b;" glyph-name="uni021B" horiz-adv-x="337" d="M262 -172Q287 -169 303 -163T319 -144Q319 -137 314 -132T301 -121T289 -107T283 -84Q283 -54 304 -37T352 -19Q382 -19 402 -38T422 -90Q422 -157 377 -190T250 -227L262 -172ZM65 526H119L151
665H329L297 526H384L360 419H272L216 171Q208 137 219 119T269 101H292L270 5Q252 -1 231 -5T180 -9Q89 -9 53 36T37 167L95 419H41L65 526Z" />
<glyph unicode="&#x237;" glyph-name="uni0237" horiz-adv-x="278" d="M-14 -169Q-48 -169 -73 -165T-115 -154L-94 -67H-67Q-35 -67 -21 -53T1 -6L92 393Q94 401 89 410T75 419H41L62 512Q85 520 113 526T187 532Q241 532 265 504T276 419L177 -15Q157 -102 110
-135T-14 -169Z" />
<glyph unicode="&#x2c6;" glyph-name="circumflex" horiz-adv-x="400" d="M140 598L230 700H358L415 598L406 560H341L281 614L199 560H131L140 598Z" />
<glyph unicode="&#x2c7;" glyph-name="caron" horiz-adv-x="400" d="M155 662L164 700H229L289 645L371 700H439L430 662L340 560H212L155 662Z" />
<glyph unicode="&#x2d8;" glyph-name="breve" horiz-adv-x="400" d="M286 559Q254 559 231 567T192 588T167 617T154 650L166 700H250Q251 683 261 672T292 661Q332 661 346 700H438L424 638Q416 624 405 610T376 585T337 567T286 559Z" />
<glyph unicode="&#x2d9;" glyph-name="dotaccent" horiz-adv-x="400" d="M283 563Q245 563 223 585T200 641Q200 681 227 705T292 729Q330 729 352 706T375 650Q375 610 348 587T283 563Z" />
<glyph unicode="&#x2da;" glyph-name="ring" horiz-adv-x="400" d="M290 562Q246 562 217 588T187 658Q187 684 196 704T221 738T257 759T299 766Q342 766 371 740T400 670Q400 644 391 624T367 590T331 569T290 562ZM291 612Q313 612 328 626T344 667Q344 689
332 703T296 717Q273 717 259 702T244 659Q244 638 256 625T291 612Z" />
<glyph unicode="&#x2db;" glyph-name="ogonek" horiz-adv-x="400" d="M136 -167Q91 -167 67 -149T42 -98Q42 -79 51 -64T75 -36T109 -15T147 0H212Q192 -17 180 -30T167 -59Q167 -81 202 -81H222L205 -151Q193 -157 176 -162T136 -167Z" />
<glyph unicode="&#x2dc;" glyph-name="tilde" horiz-adv-x="400" d="M118 633Q133 659 159 677T224 695Q241 695 259 692T293 685T324 678T349 675Q378 675 392 700H470L453 626Q438 601 412 582T346 563Q329 563 311 566T277 574T246 583T221 587Q206 587 196
580T179 560H102L118 633Z" />
<glyph unicode="&#x2dd;" glyph-name="hungarumlaut" horiz-adv-x="400" d="M349 700H491L479 649L397 560H305L349 700ZM172 700H314L301 649L219 560H128L172 700Z" />
</font>
</defs>
</svg>
